M48
;DRILL file {Pcbnew (22-Jun-2014 BZR 4027)-stable} date Tue Jul 18 17:56:33 2017
;FORMAT={-:-/ absolute / metric / decimal}
FMAT,2
METRIC,TZ
T1C0.635
T2C1.016
%
G90
G05
M71
T1
X123.825Y-81.915
X123.825Y-83.82
X125.349Y-95.25
X127.127Y-83.566
X128.397Y-78.486
X129.794Y-79.629
X138.049Y-78.994
X138.684Y-90.932
X138.811Y-81.28
X142.113Y-85.471
X144.272Y-77.216
X148.336Y-81.788
X149.352Y-87.249
X150.114Y-83.947
X150.241Y-85.471
X150.622Y-89.281
X151.638Y-90.17
X152.654Y-81.788
X154.686Y-85.598
X155.702Y-79.248
X155.702Y-94.107
X157.48Y-80.391
X157.48Y-83.312
X157.48Y-89.408
X158.496Y-93.218
X159.512Y-94.742
X161.036Y-94.488
X164.465Y-87.249
X164.592Y-93.218
X170.561Y-83.566
X171.958Y-86.995
X172.085Y-77.343
X172.593Y-92.583
X173.482Y-84.455
X176.911Y-83.82
X176.911Y-91.186
X178.435Y-81.661
X178.689Y-91.44
X178.943Y-86.106
X181.61Y-79.883
X182.118Y-83.185
X183.134Y-79.883
X183.261Y-82.677
X184.404Y-77.47
X185.547Y-81.661
X186.055Y-86.995
X187.071Y-86.106
X188.087Y-83.566
X188.087Y-88.265
X188.468Y-79.883
X188.595Y-92.456
X189.103Y-81.788
X189.738Y-85.725
X190.246Y-78.74
X190.881Y-94.488
X191.897Y-94.996
X192.278Y-84.074
X192.405Y-81.788
X192.786Y-80.518
X192.786Y-87.376
X193.04Y-91.948
X193.294Y-83.185
X194.945Y-79.883
X195.072Y-83.693
X196.977Y-80.518
X198.12Y-78.867
X198.12Y-84.201
X199.009Y-93.091
X200.406Y-90.297
X203.454Y-81.661
X204.851Y-84.582
X204.978Y-88.646
X205.105Y-90.805
X205.232Y-83.312
X206.375Y-95.504
X207.391Y-85.598
X208.Y-80.
X208.534Y-83.693
X210.439Y-87.122
T2
X119.38Y-82.55
X119.38Y-85.09
X119.38Y-87.63
X119.38Y-90.17
X131.1Y-87.808
X131.1Y-94.31
X135.6Y-87.808
X135.6Y-94.31
X138.72Y-87.935
X138.72Y-94.437
X143.22Y-87.935
X143.22Y-94.437
X147.32Y-79.121
X149.86Y-79.121
X152.4Y-79.121
X215.9Y-82.55
X215.9Y-85.09
X215.9Y-87.63
X215.9Y-90.17
T0
M30
