G04 (created by PCBNEW (22-Jun-2014 BZR 4027)-stable) date Tue Jul 18 17:56:31 2017*
%MOIN*%
G04 Gerber Fmt 3.4, Leading zero omitted, Abs format*
%FSLAX34Y34*%
G01*
G70*
G90*
G04 APERTURE LIST*
%ADD10C,0.00590551*%
%ADD11R,0.0236X0.0551*%
%ADD12R,0.0472X0.0787*%
%ADD13R,0.0197X0.098474*%
%ADD14R,0.0787X0.0984*%
%ADD15C,0.06*%
%ADD16R,0.0394X0.0315*%
%ADD17R,0.0590551X0.0393701*%
%ADD18R,0.035X0.055*%
%ADD19R,0.0551181X0.0511811*%
%ADD20R,0.025X0.045*%
%ADD21R,0.0314X0.0314*%
%ADD22R,0.08X0.144*%
%ADD23R,0.08X0.04*%
%ADD24R,0.0354X0.0394*%
%ADD25R,0.0394X0.0354*%
%ADD26R,0.07X0.07*%
%ADD27R,0.05X0.016*%
%ADD28R,0.0275591X0.00787402*%
%ADD29C,0.035*%
%ADD30C,0.00787402*%
%ADD31C,0.015748*%
%ADD32C,0.0314961*%
%ADD33C,0.011811*%
%ADD34C,0.01*%
G04 APERTURE END LIST*
G54D10*
G54D11*
X78750Y-31450D03*
X78750Y-33550D03*
X79250Y-31450D03*
X79750Y-31450D03*
X80250Y-31450D03*
X79250Y-33550D03*
X79750Y-33550D03*
X80250Y-33550D03*
G54D12*
X65370Y-35063D03*
X66630Y-35063D03*
X66630Y-32937D03*
X65370Y-32937D03*
X57370Y-35063D03*
X58630Y-35063D03*
X58630Y-32937D03*
X57370Y-32937D03*
X49370Y-35063D03*
X50630Y-35063D03*
X50630Y-32937D03*
X49370Y-32937D03*
X81370Y-35063D03*
X82630Y-35063D03*
X82630Y-32937D03*
X81370Y-32937D03*
X73370Y-35063D03*
X74630Y-35063D03*
X74630Y-32937D03*
X73370Y-32937D03*
G54D13*
X77370Y-35102D03*
X77685Y-35102D03*
X78000Y-35102D03*
X78315Y-35102D03*
X78630Y-35102D03*
G54D14*
X76248Y-35181D03*
X76248Y-37346D03*
X79752Y-35181D03*
X79752Y-37346D03*
G54D13*
X69370Y-35102D03*
X69685Y-35102D03*
X70000Y-35102D03*
X70315Y-35102D03*
X70630Y-35102D03*
G54D14*
X68248Y-35181D03*
X68248Y-37346D03*
X71752Y-35181D03*
X71752Y-37346D03*
G54D15*
X85000Y-35500D03*
X85000Y-34500D03*
X85000Y-33500D03*
X85000Y-32500D03*
X47000Y-35500D03*
X47000Y-34500D03*
X47000Y-33500D03*
X47000Y-32500D03*
X58000Y-31150D03*
X59000Y-31150D03*
X60000Y-31150D03*
G54D16*
X65183Y-36250D03*
X64317Y-36625D03*
X64317Y-35875D03*
G54D17*
X68665Y-34000D03*
X69334Y-34000D03*
G54D18*
X52375Y-32000D03*
X51625Y-32000D03*
X52375Y-31000D03*
X51625Y-31000D03*
X52375Y-33000D03*
X51625Y-33000D03*
G54D19*
X59145Y-36933D03*
X59854Y-36933D03*
X59854Y-36066D03*
X59145Y-36066D03*
G54D20*
X67050Y-36000D03*
X66450Y-36000D03*
X81800Y-32000D03*
X81200Y-32000D03*
X81800Y-31000D03*
X81200Y-31000D03*
X66450Y-37500D03*
X67050Y-37500D03*
X66450Y-36750D03*
X67050Y-36750D03*
X49700Y-31500D03*
X50300Y-31500D03*
X50300Y-30500D03*
X49700Y-30500D03*
X64200Y-32050D03*
X64800Y-32050D03*
X64200Y-31300D03*
X64800Y-31300D03*
X64200Y-30550D03*
X64800Y-30550D03*
G54D10*
G36*
X59737Y-34800D02*
X59668Y-34730D01*
X60224Y-34174D01*
X60294Y-34243D01*
X59737Y-34800D01*
X59737Y-34800D01*
G37*
G36*
X59876Y-34939D02*
X59807Y-34870D01*
X60364Y-34313D01*
X60433Y-34382D01*
X59876Y-34939D01*
X59876Y-34939D01*
G37*
G36*
X60016Y-35078D02*
X59946Y-35009D01*
X60503Y-34452D01*
X60572Y-34522D01*
X60016Y-35078D01*
X60016Y-35078D01*
G37*
G36*
X60155Y-35217D02*
X60086Y-35148D01*
X60642Y-34592D01*
X60712Y-34661D01*
X60155Y-35217D01*
X60155Y-35217D01*
G37*
G36*
X60294Y-35357D02*
X60225Y-35287D01*
X60782Y-34731D01*
X60851Y-34800D01*
X60294Y-35357D01*
X60294Y-35357D01*
G37*
G36*
X60434Y-35496D02*
X60364Y-35427D01*
X60921Y-34870D01*
X60990Y-34940D01*
X60434Y-35496D01*
X60434Y-35496D01*
G37*
G36*
X60572Y-35635D02*
X60503Y-35565D01*
X61059Y-35009D01*
X61129Y-35078D01*
X60572Y-35635D01*
X60572Y-35635D01*
G37*
G36*
X60712Y-35774D02*
X60642Y-35705D01*
X61199Y-35148D01*
X61268Y-35217D01*
X60712Y-35774D01*
X60712Y-35774D01*
G37*
G36*
X60851Y-35913D02*
X60782Y-35844D01*
X61338Y-35287D01*
X61407Y-35357D01*
X60851Y-35913D01*
X60851Y-35913D01*
G37*
G36*
X60990Y-36053D02*
X60921Y-35983D01*
X61477Y-35427D01*
X61547Y-35496D01*
X60990Y-36053D01*
X60990Y-36053D01*
G37*
G36*
X61129Y-36192D02*
X61060Y-36123D01*
X61617Y-35566D01*
X61686Y-35635D01*
X61129Y-36192D01*
X61129Y-36192D01*
G37*
G36*
X61269Y-36331D02*
X61199Y-36262D01*
X61756Y-35705D01*
X61825Y-35775D01*
X61269Y-36331D01*
X61269Y-36331D01*
G37*
G36*
X63775Y-33825D02*
X63705Y-33756D01*
X64262Y-33199D01*
X64331Y-33269D01*
X63775Y-33825D01*
X63775Y-33825D01*
G37*
G36*
X63635Y-33686D02*
X63566Y-33617D01*
X64123Y-33060D01*
X64192Y-33129D01*
X63635Y-33686D01*
X63635Y-33686D01*
G37*
G36*
X63496Y-33547D02*
X63427Y-33477D01*
X63983Y-32921D01*
X64053Y-32990D01*
X63496Y-33547D01*
X63496Y-33547D01*
G37*
G36*
X63357Y-33407D02*
X63287Y-33338D01*
X63844Y-32782D01*
X63913Y-32851D01*
X63357Y-33407D01*
X63357Y-33407D01*
G37*
G36*
X63217Y-33268D02*
X63148Y-33199D01*
X63705Y-32642D01*
X63774Y-32712D01*
X63217Y-33268D01*
X63217Y-33268D01*
G37*
G36*
X63078Y-33129D02*
X63009Y-33059D01*
X63565Y-32503D01*
X63635Y-32572D01*
X63078Y-33129D01*
X63078Y-33129D01*
G37*
G36*
X62940Y-32990D02*
X62870Y-32921D01*
X63427Y-32364D01*
X63496Y-32434D01*
X62940Y-32990D01*
X62940Y-32990D01*
G37*
G36*
X62800Y-32851D02*
X62731Y-32782D01*
X63287Y-32225D01*
X63357Y-32294D01*
X62800Y-32851D01*
X62800Y-32851D01*
G37*
G36*
X62661Y-32712D02*
X62592Y-32642D01*
X63148Y-32086D01*
X63217Y-32155D01*
X62661Y-32712D01*
X62661Y-32712D01*
G37*
G36*
X62522Y-32572D02*
X62452Y-32503D01*
X63009Y-31946D01*
X63078Y-32016D01*
X62522Y-32572D01*
X62522Y-32572D01*
G37*
G36*
X62382Y-32433D02*
X62313Y-32364D01*
X62870Y-31807D01*
X62939Y-31876D01*
X62382Y-32433D01*
X62382Y-32433D01*
G37*
G36*
X62243Y-32294D02*
X62174Y-32224D01*
X62730Y-31668D01*
X62800Y-31737D01*
X62243Y-32294D01*
X62243Y-32294D01*
G37*
G36*
X62730Y-36331D02*
X62174Y-35775D01*
X62243Y-35705D01*
X62800Y-36262D01*
X62730Y-36331D01*
X62730Y-36331D01*
G37*
G36*
X62870Y-36192D02*
X62313Y-35635D01*
X62382Y-35566D01*
X62939Y-36123D01*
X62870Y-36192D01*
X62870Y-36192D01*
G37*
G36*
X63009Y-36053D02*
X62452Y-35496D01*
X62522Y-35427D01*
X63078Y-35983D01*
X63009Y-36053D01*
X63009Y-36053D01*
G37*
G36*
X63148Y-35913D02*
X62592Y-35357D01*
X62661Y-35287D01*
X63217Y-35844D01*
X63148Y-35913D01*
X63148Y-35913D01*
G37*
G36*
X63287Y-35774D02*
X62731Y-35217D01*
X62800Y-35148D01*
X63357Y-35705D01*
X63287Y-35774D01*
X63287Y-35774D01*
G37*
G36*
X63427Y-35635D02*
X62870Y-35078D01*
X62940Y-35009D01*
X63496Y-35565D01*
X63427Y-35635D01*
X63427Y-35635D01*
G37*
G36*
X63565Y-35496D02*
X63009Y-34940D01*
X63078Y-34870D01*
X63635Y-35427D01*
X63565Y-35496D01*
X63565Y-35496D01*
G37*
G36*
X63705Y-35357D02*
X63148Y-34800D01*
X63217Y-34731D01*
X63774Y-35287D01*
X63705Y-35357D01*
X63705Y-35357D01*
G37*
G36*
X63844Y-35217D02*
X63287Y-34661D01*
X63357Y-34592D01*
X63913Y-35148D01*
X63844Y-35217D01*
X63844Y-35217D01*
G37*
G36*
X63983Y-35078D02*
X63427Y-34522D01*
X63496Y-34452D01*
X64053Y-35009D01*
X63983Y-35078D01*
X63983Y-35078D01*
G37*
G36*
X64123Y-34939D02*
X63566Y-34382D01*
X63635Y-34313D01*
X64192Y-34870D01*
X64123Y-34939D01*
X64123Y-34939D01*
G37*
G36*
X64262Y-34800D02*
X63705Y-34243D01*
X63775Y-34174D01*
X64331Y-34730D01*
X64262Y-34800D01*
X64262Y-34800D01*
G37*
G36*
X61756Y-32294D02*
X61199Y-31737D01*
X61269Y-31668D01*
X61825Y-32224D01*
X61756Y-32294D01*
X61756Y-32294D01*
G37*
G36*
X61617Y-32433D02*
X61060Y-31876D01*
X61129Y-31807D01*
X61686Y-32364D01*
X61617Y-32433D01*
X61617Y-32433D01*
G37*
G36*
X61477Y-32572D02*
X60921Y-32016D01*
X60990Y-31946D01*
X61547Y-32503D01*
X61477Y-32572D01*
X61477Y-32572D01*
G37*
G36*
X61338Y-32712D02*
X60782Y-32155D01*
X60851Y-32086D01*
X61407Y-32642D01*
X61338Y-32712D01*
X61338Y-32712D01*
G37*
G36*
X61199Y-32851D02*
X60642Y-32294D01*
X60712Y-32225D01*
X61268Y-32782D01*
X61199Y-32851D01*
X61199Y-32851D01*
G37*
G36*
X61059Y-32990D02*
X60503Y-32434D01*
X60572Y-32364D01*
X61129Y-32921D01*
X61059Y-32990D01*
X61059Y-32990D01*
G37*
G36*
X60921Y-33129D02*
X60364Y-32572D01*
X60434Y-32503D01*
X60990Y-33059D01*
X60921Y-33129D01*
X60921Y-33129D01*
G37*
G36*
X60782Y-33268D02*
X60225Y-32712D01*
X60294Y-32642D01*
X60851Y-33199D01*
X60782Y-33268D01*
X60782Y-33268D01*
G37*
G36*
X60642Y-33407D02*
X60086Y-32851D01*
X60155Y-32782D01*
X60712Y-33338D01*
X60642Y-33407D01*
X60642Y-33407D01*
G37*
G36*
X60503Y-33547D02*
X59946Y-32990D01*
X60016Y-32921D01*
X60572Y-33477D01*
X60503Y-33547D01*
X60503Y-33547D01*
G37*
G36*
X60364Y-33686D02*
X59807Y-33129D01*
X59876Y-33060D01*
X60433Y-33617D01*
X60364Y-33686D01*
X60364Y-33686D01*
G37*
G36*
X60224Y-33825D02*
X59668Y-33269D01*
X59737Y-33199D01*
X60294Y-33756D01*
X60224Y-33825D01*
X60224Y-33825D01*
G37*
G54D21*
X48595Y-31750D03*
X48005Y-31750D03*
X65855Y-30550D03*
X66445Y-30550D03*
X65855Y-32050D03*
X66445Y-32050D03*
X65855Y-31300D03*
X66445Y-31300D03*
G54D22*
X56300Y-32000D03*
G54D23*
X53700Y-32000D03*
X53700Y-32900D03*
X53700Y-31100D03*
G54D24*
X61704Y-31000D03*
X62296Y-31000D03*
G54D25*
X60750Y-36704D03*
X60750Y-37296D03*
X78000Y-32204D03*
X78000Y-32796D03*
G54D26*
X51614Y-37130D03*
X51614Y-34570D03*
X53386Y-37130D03*
X53386Y-34570D03*
X54614Y-37180D03*
X54614Y-34620D03*
X56386Y-37180D03*
X56386Y-34620D03*
G54D27*
X75125Y-36885D03*
X75125Y-36630D03*
X75125Y-36370D03*
X75125Y-36115D03*
X73375Y-36115D03*
X73375Y-36370D03*
X73375Y-36630D03*
X73375Y-36885D03*
G54D28*
X74715Y-31185D03*
X74719Y-31342D03*
X74715Y-31500D03*
X74715Y-31657D03*
X74715Y-31814D03*
X75384Y-31814D03*
X75384Y-31657D03*
X75384Y-31500D03*
X75384Y-31342D03*
X75384Y-31185D03*
X71115Y-31735D03*
X71119Y-31892D03*
X71115Y-32050D03*
X71115Y-32207D03*
X71115Y-32364D03*
X71784Y-32364D03*
X71784Y-32207D03*
X71784Y-32050D03*
X71784Y-31892D03*
X71784Y-31735D03*
G54D24*
X73954Y-37500D03*
X74546Y-37500D03*
X73846Y-31000D03*
X73254Y-31000D03*
G54D25*
X76400Y-32046D03*
X76400Y-31454D03*
G54D24*
X73846Y-31950D03*
X73254Y-31950D03*
X70246Y-31550D03*
X69654Y-31550D03*
X70246Y-32550D03*
X69654Y-32550D03*
X71154Y-33050D03*
X71746Y-33050D03*
G54D29*
X75900Y-31700D03*
X78000Y-31050D03*
X74900Y-31000D03*
X70250Y-32150D03*
X81889Y-31496D03*
X61300Y-31200D03*
X62400Y-36700D03*
X58400Y-32200D03*
X64800Y-36700D03*
X54650Y-32000D03*
X60100Y-32200D03*
X80750Y-35750D03*
X78350Y-36650D03*
X67750Y-30450D03*
X72600Y-30500D03*
X56800Y-30400D03*
X50550Y-30900D03*
X67950Y-36450D03*
X69650Y-35900D03*
X82850Y-34300D03*
X80700Y-34900D03*
X68300Y-33250D03*
X70450Y-33900D03*
X73650Y-33900D03*
X74050Y-34750D03*
X75900Y-34400D03*
X60900Y-33700D03*
X59150Y-33650D03*
X55950Y-33650D03*
X48750Y-33000D03*
X81250Y-37600D03*
X49350Y-37500D03*
X54600Y-35800D03*
X59700Y-35500D03*
X59300Y-35150D03*
X76100Y-32750D03*
X77550Y-31700D03*
X80100Y-32150D03*
X72100Y-31450D03*
X74450Y-32200D03*
X74200Y-31450D03*
X75550Y-37400D03*
X62800Y-37300D03*
X76800Y-32950D03*
X80800Y-32800D03*
X75700Y-33100D03*
X72150Y-32550D03*
X76000Y-36200D03*
X63400Y-37200D03*
X75150Y-37200D03*
X62000Y-32800D03*
X62000Y-31650D03*
X62000Y-35200D03*
X78900Y-35550D03*
X75750Y-32200D03*
X76750Y-31450D03*
X78000Y-33150D03*
X70350Y-36000D03*
X80650Y-33300D03*
X73050Y-32150D03*
X71500Y-31450D03*
X74250Y-36400D03*
X69650Y-33000D03*
X71700Y-32750D03*
X48750Y-32250D03*
X61300Y-37050D03*
X82100Y-32950D03*
X74050Y-32900D03*
X67150Y-32900D03*
X59100Y-33050D03*
X50050Y-32900D03*
X51100Y-31350D03*
X54350Y-31100D03*
X81650Y-33700D03*
X74700Y-33750D03*
X73250Y-34250D03*
X67700Y-34250D03*
X64750Y-34350D03*
X58800Y-34350D03*
G54D30*
X75900Y-31700D02*
X76246Y-32046D01*
X76246Y-32046D02*
X76400Y-32046D01*
X75384Y-31500D02*
X75700Y-31500D01*
X75700Y-31500D02*
X75900Y-31700D01*
G54D31*
X71750Y-34000D02*
X71200Y-34000D01*
X70246Y-33046D02*
X70246Y-32550D01*
X71200Y-34000D02*
X70246Y-33046D01*
X73375Y-36885D02*
X72885Y-36885D01*
X72550Y-34800D02*
X71750Y-34000D01*
X71750Y-34000D02*
X71750Y-34000D01*
X72550Y-36550D02*
X72550Y-34800D01*
X72885Y-36885D02*
X72550Y-36550D01*
X78000Y-32204D02*
X78000Y-31050D01*
X73846Y-31000D02*
X74846Y-31000D01*
X74846Y-31000D02*
X74900Y-31000D01*
X70246Y-32550D02*
X70250Y-32546D01*
X70250Y-32546D02*
X70250Y-32150D01*
X81889Y-31496D02*
X81839Y-31546D01*
X81839Y-31546D02*
X81800Y-31550D01*
G54D32*
X61150Y-31000D02*
X61150Y-31050D01*
X61150Y-31050D02*
X61300Y-31200D01*
G54D31*
X81800Y-31000D02*
X81800Y-31550D01*
X81800Y-31550D02*
X81800Y-32000D01*
G54D33*
X79250Y-33550D02*
X79250Y-32650D01*
X78750Y-33550D02*
X78750Y-32250D01*
X78750Y-31450D02*
X78750Y-32250D01*
X78750Y-32250D02*
X78750Y-32200D01*
X78750Y-32200D02*
X78750Y-32204D01*
X79750Y-33550D02*
X79750Y-33150D01*
X78804Y-32204D02*
X78750Y-32204D01*
X78750Y-32204D02*
X78000Y-32204D01*
X79750Y-33150D02*
X79250Y-32650D01*
X79250Y-32650D02*
X78804Y-32204D01*
G54D30*
X74715Y-31185D02*
X74831Y-30985D01*
X74831Y-30985D02*
X73846Y-31000D01*
G54D31*
X73375Y-36885D02*
X73735Y-36885D01*
X73954Y-37104D02*
X73954Y-37500D01*
X73735Y-36885D02*
X73954Y-37104D01*
G54D30*
X70246Y-32550D02*
X70246Y-32454D01*
X70807Y-31892D02*
X71119Y-31892D01*
X70246Y-32454D02*
X70807Y-31892D01*
X71119Y-31892D02*
X71342Y-31892D01*
X71500Y-32050D02*
X71450Y-32000D01*
X71500Y-32050D02*
X71784Y-32050D01*
X71342Y-31892D02*
X71450Y-32000D01*
G54D33*
X62626Y-35879D02*
X63000Y-36252D01*
X62700Y-36700D02*
X62400Y-36700D01*
X63000Y-36400D02*
X62700Y-36700D01*
X63000Y-36252D02*
X63000Y-36400D01*
X60750Y-36704D02*
X62396Y-36704D01*
X62396Y-36704D02*
X62400Y-36700D01*
X58150Y-32550D02*
X58150Y-32500D01*
X58150Y-32500D02*
X58400Y-32200D01*
X58150Y-32550D02*
X58150Y-35850D01*
X58366Y-36066D02*
X59145Y-36066D01*
X58150Y-35850D02*
X58366Y-36066D01*
X64725Y-36625D02*
X64317Y-36625D01*
X64800Y-36700D02*
X64725Y-36625D01*
X60538Y-32955D02*
X60150Y-32567D01*
X60100Y-32250D02*
X60100Y-32200D01*
X60150Y-32567D02*
X60100Y-32250D01*
G54D32*
X53700Y-32000D02*
X54650Y-32000D01*
X61150Y-31000D02*
X61704Y-31000D01*
X60100Y-32200D02*
X60100Y-32200D01*
X60100Y-32200D02*
X61150Y-31000D01*
G54D33*
X60955Y-35461D02*
X60567Y-35850D01*
X60550Y-36500D02*
X60550Y-36504D01*
X60567Y-36482D02*
X60550Y-36500D01*
X60567Y-36432D02*
X60567Y-36482D01*
X60567Y-35850D02*
X60567Y-36432D01*
X59550Y-36500D02*
X60450Y-36500D01*
X59250Y-36171D02*
X59250Y-36250D01*
X59250Y-36250D02*
X59300Y-36250D01*
X59300Y-36250D02*
X59550Y-36500D01*
X59145Y-36066D02*
X59250Y-36171D01*
X60546Y-36500D02*
X60550Y-36504D01*
X60550Y-36504D02*
X60750Y-36704D01*
X60450Y-36500D02*
X60546Y-36500D01*
G54D32*
X52375Y-31000D02*
X53375Y-32000D01*
X53375Y-32000D02*
X53700Y-32000D01*
X67750Y-30450D02*
X67322Y-30877D01*
X67322Y-32283D02*
X67750Y-32710D01*
X67322Y-30877D02*
X67322Y-32283D01*
G54D31*
X77370Y-35102D02*
X77370Y-35670D01*
X80750Y-35683D02*
X81370Y-35063D01*
X80750Y-35750D02*
X80750Y-35683D01*
X77370Y-35670D02*
X78350Y-36650D01*
G54D32*
X81370Y-35063D02*
X81370Y-34980D01*
X83650Y-33850D02*
X85000Y-32500D01*
X82500Y-33850D02*
X83650Y-33850D01*
X81370Y-34980D02*
X82500Y-33850D01*
X67750Y-33750D02*
X67750Y-32710D01*
X73370Y-35063D02*
X72600Y-34293D01*
X72600Y-34293D02*
X72600Y-30500D01*
X65900Y-33750D02*
X67750Y-33750D01*
X67750Y-33750D02*
X68650Y-33750D01*
X68650Y-33750D02*
X68665Y-33750D01*
X68665Y-34000D02*
X68665Y-33750D01*
X65370Y-35063D02*
X65370Y-34280D01*
X65370Y-34280D02*
X65900Y-33750D01*
X57854Y-32650D02*
X57854Y-32304D01*
X57200Y-30800D02*
X56800Y-30400D01*
X57200Y-31650D02*
X57200Y-30800D01*
X57854Y-32304D02*
X57200Y-31650D01*
X57370Y-35063D02*
X57854Y-34578D01*
X57854Y-34578D02*
X57854Y-32650D01*
X57854Y-32650D02*
X57854Y-32650D01*
X50300Y-30500D02*
X50300Y-30650D01*
X50300Y-30650D02*
X50550Y-30900D01*
X48750Y-34250D02*
X49370Y-34870D01*
X47000Y-32500D02*
X48750Y-34250D01*
X49370Y-34870D02*
X49370Y-35063D01*
X50300Y-30500D02*
X50300Y-30700D01*
X50300Y-30700D02*
X49700Y-31300D01*
G54D31*
X49700Y-31300D02*
X49700Y-31500D01*
G54D30*
X67050Y-37500D02*
X67050Y-37350D01*
X67050Y-37350D02*
X67950Y-36450D01*
X69685Y-35102D02*
X69685Y-35865D01*
X69685Y-35865D02*
X69650Y-35900D01*
X67050Y-36750D02*
X67750Y-36050D01*
X68450Y-36050D02*
X68950Y-36550D01*
X67750Y-36050D02*
X68450Y-36050D01*
X70000Y-36350D02*
X70000Y-35102D01*
X69800Y-36550D02*
X70000Y-36350D01*
X69600Y-36550D02*
X69800Y-36550D01*
X68950Y-36550D02*
X69600Y-36550D01*
G54D31*
X80200Y-34400D02*
X79900Y-34100D01*
X76200Y-34100D02*
X75900Y-34400D01*
X79900Y-34100D02*
X76200Y-34100D01*
X84200Y-34300D02*
X85000Y-33500D01*
X82850Y-34300D02*
X84200Y-34300D01*
X80200Y-34400D02*
X80700Y-34900D01*
X73650Y-33950D02*
X73650Y-34300D01*
X70050Y-33500D02*
X70450Y-33900D01*
X69400Y-33500D02*
X70050Y-33500D01*
X68300Y-33250D02*
X69150Y-33250D01*
X69150Y-33250D02*
X69400Y-33500D01*
X73650Y-33950D02*
X73650Y-33900D01*
X73650Y-34300D02*
X74050Y-34700D01*
X74050Y-34700D02*
X74050Y-34750D01*
X75900Y-34400D02*
X76050Y-34400D01*
X76200Y-34400D02*
X76050Y-34400D01*
X76200Y-34400D02*
X76200Y-34400D01*
G54D30*
X59981Y-34487D02*
X60768Y-33700D01*
X60768Y-33700D02*
X60900Y-33700D01*
G54D33*
X59400Y-33905D02*
X59150Y-33655D01*
X59150Y-33655D02*
X59150Y-33650D01*
X55400Y-33650D02*
X55950Y-33650D01*
X59400Y-33905D02*
X59981Y-34487D01*
G54D31*
X49370Y-32937D02*
X50083Y-33650D01*
X50083Y-33650D02*
X55400Y-33650D01*
G54D33*
X55400Y-33650D02*
X55450Y-33650D01*
G54D31*
X48813Y-32937D02*
X49370Y-32937D01*
X48750Y-33000D02*
X48813Y-32937D01*
X82630Y-35063D02*
X82630Y-36220D01*
X82630Y-36220D02*
X81250Y-37600D01*
X82630Y-35063D02*
X84437Y-35063D01*
X84437Y-35063D02*
X85000Y-34500D01*
X47000Y-34500D02*
X49350Y-36850D01*
X49350Y-36850D02*
X49350Y-37500D01*
G54D30*
X62905Y-32399D02*
X63254Y-32050D01*
X63254Y-32050D02*
X64200Y-32050D01*
X54600Y-35800D02*
X54614Y-35800D01*
X54614Y-37180D02*
X54614Y-35800D01*
X54614Y-35800D02*
X54614Y-34620D01*
X59804Y-35500D02*
X60399Y-34905D01*
X59700Y-35500D02*
X59804Y-35500D01*
X62626Y-32120D02*
X64197Y-30550D01*
X64197Y-30550D02*
X64200Y-30550D01*
X51614Y-34570D02*
X51614Y-37130D01*
X60259Y-34765D02*
X59875Y-35150D01*
X59875Y-35150D02*
X59300Y-35150D01*
X60259Y-33234D02*
X59750Y-32724D01*
X59750Y-32724D02*
X59750Y-31400D01*
X59750Y-31400D02*
X60000Y-31150D01*
X59750Y-32724D02*
X59750Y-32724D01*
X77150Y-32100D02*
X76500Y-32750D01*
X76500Y-32750D02*
X76100Y-32750D01*
X79750Y-31450D02*
X79750Y-31800D01*
X77550Y-31700D02*
X77150Y-32100D01*
X79750Y-31800D02*
X80100Y-32150D01*
X71784Y-32207D02*
X72042Y-32207D01*
X72100Y-32150D02*
X72100Y-31450D01*
X72042Y-32207D02*
X72100Y-32150D01*
X74719Y-31342D02*
X74307Y-31342D01*
X74800Y-32200D02*
X74850Y-32250D01*
X75650Y-36530D02*
X75650Y-36100D01*
X75650Y-36100D02*
X75300Y-35750D01*
X75300Y-35750D02*
X75300Y-32700D01*
X75300Y-32700D02*
X74850Y-32250D01*
X75550Y-36630D02*
X75650Y-36530D01*
X74450Y-32200D02*
X74800Y-32200D01*
X74307Y-31342D02*
X74200Y-31450D01*
X75530Y-36630D02*
X75550Y-36630D01*
X75550Y-36630D02*
X75125Y-36630D01*
X75700Y-36800D02*
X75530Y-36630D01*
X75700Y-37250D02*
X75700Y-36800D01*
X75550Y-37400D02*
X75700Y-37250D01*
X62765Y-35740D02*
X63200Y-36174D01*
X63200Y-36900D02*
X62800Y-37300D01*
X63200Y-36174D02*
X63200Y-36900D01*
G54D33*
X79750Y-31450D02*
X79750Y-31050D01*
X81100Y-30900D02*
X81200Y-31000D01*
X79900Y-30900D02*
X81100Y-30900D01*
X79750Y-31050D02*
X79900Y-30900D01*
G54D30*
X76800Y-32950D02*
X76850Y-32950D01*
X76850Y-32950D02*
X76800Y-32950D01*
X80800Y-32400D02*
X81200Y-32000D01*
X80800Y-32800D02*
X80800Y-32400D01*
X76800Y-32950D02*
X76650Y-33100D01*
X76650Y-33100D02*
X75700Y-33100D01*
X75700Y-33100D02*
X75550Y-33100D01*
X71784Y-32364D02*
X71964Y-32364D01*
X71964Y-32364D02*
X72150Y-32550D01*
X75384Y-31185D02*
X75164Y-31185D01*
X75550Y-33100D02*
X75550Y-35750D01*
X75550Y-35750D02*
X76000Y-36200D01*
X75550Y-32650D02*
X75550Y-33100D01*
X75050Y-32150D02*
X75550Y-32650D01*
X75050Y-31300D02*
X75050Y-32150D01*
X75164Y-31185D02*
X75050Y-31300D01*
X63400Y-36095D02*
X63400Y-37200D01*
X62905Y-35600D02*
X63400Y-36095D01*
X75125Y-37175D02*
X75125Y-36885D01*
X75150Y-37200D02*
X75125Y-37175D01*
G54D33*
X80250Y-31450D02*
X80650Y-31450D01*
X80650Y-31450D02*
X81200Y-32000D01*
G54D30*
X59600Y-32852D02*
X59000Y-32252D01*
X59000Y-32252D02*
X59000Y-31150D01*
X60120Y-33373D02*
X59600Y-32852D01*
X59000Y-32252D02*
X59000Y-32252D01*
X64150Y-35175D02*
X64317Y-35342D01*
X64317Y-35342D02*
X64317Y-35875D01*
X63740Y-34765D02*
X64150Y-35175D01*
X62765Y-32259D02*
X63725Y-31300D01*
X63725Y-31300D02*
X64200Y-31300D01*
X62000Y-35200D02*
X62000Y-32800D01*
G54D31*
X62296Y-31354D02*
X62296Y-31000D01*
X62296Y-31354D02*
X62000Y-31650D01*
X62000Y-32800D02*
X62000Y-31650D01*
X78630Y-35102D02*
X78630Y-35280D01*
X78630Y-35280D02*
X78900Y-35550D01*
G54D30*
X75384Y-31657D02*
X75384Y-31814D01*
X75384Y-31814D02*
X75384Y-31834D01*
X75384Y-31834D02*
X75750Y-32200D01*
X75384Y-31342D02*
X76288Y-31342D01*
X76446Y-31500D02*
X76750Y-31450D01*
X76288Y-31342D02*
X76446Y-31500D01*
G54D31*
X78000Y-32796D02*
X78000Y-33150D01*
X70630Y-35102D02*
X70630Y-35720D01*
X70630Y-35720D02*
X70350Y-36000D01*
G54D33*
X80250Y-33550D02*
X80500Y-33300D01*
X80500Y-33300D02*
X80650Y-33300D01*
G54D30*
X73254Y-31750D02*
X73254Y-31946D01*
X73254Y-31946D02*
X73050Y-32150D01*
X71784Y-31735D02*
X71784Y-31734D01*
X71784Y-31734D02*
X71500Y-31450D01*
G54D33*
X79800Y-32450D02*
X80250Y-32900D01*
X79250Y-31900D02*
X79800Y-32450D01*
X79250Y-31450D02*
X79250Y-31900D01*
X80250Y-32900D02*
X80250Y-33550D01*
G54D31*
X74546Y-37500D02*
X74546Y-36696D01*
X74200Y-36350D02*
X74200Y-36370D01*
X74546Y-36696D02*
X74200Y-36350D01*
X73375Y-36370D02*
X74200Y-36370D01*
X74200Y-36370D02*
X74220Y-36370D01*
X74250Y-36400D02*
X74250Y-36350D01*
X74220Y-36370D02*
X74250Y-36400D01*
X73375Y-36115D02*
X74015Y-36115D01*
X74015Y-36115D02*
X74250Y-36350D01*
X74250Y-36350D02*
X74250Y-36350D01*
X73375Y-36630D02*
X73970Y-36630D01*
X74485Y-36115D02*
X75125Y-36115D01*
X73970Y-36630D02*
X74250Y-36350D01*
X74250Y-36350D02*
X74485Y-36115D01*
X69654Y-32550D02*
X69654Y-32996D01*
X69654Y-32996D02*
X69650Y-33000D01*
X69654Y-32550D02*
X69654Y-31550D01*
X73254Y-31750D02*
X73254Y-31000D01*
G54D30*
X71700Y-32750D02*
X71700Y-33004D01*
X71314Y-32364D02*
X71700Y-32750D01*
X71115Y-32364D02*
X71314Y-32364D01*
X71700Y-33004D02*
X71746Y-33050D01*
G54D33*
X60955Y-32538D02*
X61400Y-32982D01*
X61400Y-32982D02*
X61400Y-33050D01*
X60538Y-35044D02*
X61000Y-34582D01*
X61000Y-34582D02*
X61000Y-34450D01*
X66445Y-30550D02*
X66445Y-31300D01*
X66445Y-31300D02*
X66445Y-32050D01*
X66445Y-32050D02*
X66630Y-32235D01*
X66630Y-32235D02*
X66630Y-32937D01*
G54D31*
X48005Y-31750D02*
X48005Y-32155D01*
X48005Y-32155D02*
X48750Y-32250D01*
X60750Y-37296D02*
X61054Y-37296D01*
X61054Y-37296D02*
X61300Y-37050D01*
X59854Y-36933D02*
X60217Y-37296D01*
X60217Y-37296D02*
X60750Y-37296D01*
G54D32*
X82630Y-32937D02*
X82113Y-32937D01*
X82113Y-32937D02*
X82100Y-32950D01*
X74630Y-32937D02*
X74087Y-32937D01*
X74087Y-32937D02*
X74050Y-32900D01*
X67150Y-32900D02*
X67163Y-32887D01*
X67163Y-32887D02*
X66630Y-32937D01*
X58630Y-32937D02*
X59113Y-33037D01*
X59113Y-33037D02*
X59100Y-33050D01*
X51625Y-33000D02*
X50693Y-33000D01*
X50593Y-32900D02*
X50050Y-32900D01*
X50693Y-33000D02*
X50593Y-32900D01*
X51625Y-31000D02*
X51100Y-31350D01*
X53700Y-31100D02*
X54350Y-31100D01*
G54D31*
X49700Y-30500D02*
X49700Y-30645D01*
X49700Y-30645D02*
X48595Y-31750D01*
G54D30*
X71115Y-31735D02*
X70431Y-31735D01*
X70431Y-31735D02*
X70246Y-31550D01*
X71115Y-32207D02*
X70842Y-32207D01*
X70700Y-32596D02*
X71154Y-33050D01*
X70700Y-32350D02*
X70700Y-32596D01*
X70842Y-32207D02*
X70700Y-32350D01*
X74715Y-31657D02*
X74492Y-31657D01*
X74200Y-31950D02*
X73846Y-31950D01*
X74492Y-31657D02*
X74200Y-31950D01*
G54D33*
X81370Y-33420D02*
X81370Y-32937D01*
X81650Y-33700D02*
X81370Y-33420D01*
X74630Y-33820D02*
X74630Y-35063D01*
X74700Y-33750D02*
X74630Y-33820D01*
X66630Y-35063D02*
X67443Y-34250D01*
X73500Y-33067D02*
X73370Y-32937D01*
X73250Y-34250D02*
X73500Y-33067D01*
X67443Y-34250D02*
X67700Y-34250D01*
X64800Y-32050D02*
X65855Y-32050D01*
G54D31*
X69334Y-34000D02*
X69334Y-35067D01*
G54D30*
X69334Y-35067D02*
X69370Y-35102D01*
X66450Y-36750D02*
X66200Y-37000D01*
X66200Y-37000D02*
X64000Y-37000D01*
X63900Y-36900D02*
X64000Y-37000D01*
X63900Y-35482D02*
X63900Y-36900D01*
X63461Y-35044D02*
X63900Y-35482D01*
X67050Y-36000D02*
X67050Y-36150D01*
X67050Y-36150D02*
X66450Y-36750D01*
G54D33*
X58630Y-35063D02*
X58630Y-34520D01*
X65370Y-33730D02*
X65370Y-32937D01*
X64750Y-34350D02*
X65370Y-33730D01*
X58630Y-34520D02*
X58800Y-34350D01*
G54D31*
X50630Y-35063D02*
X50650Y-35043D01*
G54D33*
X56257Y-34050D02*
X57370Y-32937D01*
X51100Y-34050D02*
X56257Y-34050D01*
X50650Y-34500D02*
X51100Y-34050D01*
X50650Y-35043D02*
X50650Y-34500D01*
G54D30*
X60677Y-35183D02*
X59854Y-36007D01*
X59854Y-36007D02*
X59854Y-36066D01*
X63850Y-37200D02*
X66150Y-37200D01*
X66150Y-37200D02*
X66450Y-37500D01*
X63322Y-35183D02*
X63650Y-35511D01*
X63650Y-37000D02*
X63850Y-37200D01*
X63650Y-35511D02*
X63650Y-37000D01*
X66450Y-36000D02*
X65433Y-36000D01*
X65433Y-36000D02*
X65183Y-36250D01*
G54D32*
X52375Y-33000D02*
X52375Y-32000D01*
X53700Y-32900D02*
X52475Y-32900D01*
X52475Y-32900D02*
X52375Y-33000D01*
G54D33*
X64800Y-30550D02*
X65855Y-30550D01*
X65855Y-31300D02*
X64800Y-31300D01*
G54D32*
X50300Y-31500D02*
X50750Y-31950D01*
X51575Y-31950D02*
X51625Y-32000D01*
X50750Y-31950D02*
X51575Y-31950D01*
G54D10*
G36*
X63629Y-34000D02*
X62000Y-35629D01*
X60566Y-34195D01*
X60751Y-34009D01*
X60831Y-34043D01*
X60967Y-34043D01*
X61094Y-33991D01*
X61190Y-33894D01*
X61243Y-33768D01*
X61243Y-33632D01*
X61191Y-33505D01*
X61094Y-33409D01*
X61000Y-33370D01*
X62000Y-32370D01*
X63629Y-34000D01*
X63629Y-34000D01*
G37*
G54D34*
X63629Y-34000D02*
X62000Y-35629D01*
X60566Y-34195D01*
X60751Y-34009D01*
X60831Y-34043D01*
X60967Y-34043D01*
X61094Y-33991D01*
X61190Y-33894D01*
X61243Y-33768D01*
X61243Y-33632D01*
X61191Y-33505D01*
X61094Y-33409D01*
X61000Y-33370D01*
X62000Y-32370D01*
X63629Y-34000D01*
M02*
