G04 (created by PCBNEW (22-Jun-2014 BZR 4027)-stable) date Tue Jul 18 17:56:31 2017*
%MOIN*%
G04 Gerber Fmt 3.4, Leading zero omitted, Abs format*
%FSLAX34Y34*%
G01*
G70*
G90*
G04 APERTURE LIST*
%ADD10C,0.00590551*%
%ADD11C,0.06*%
%ADD12R,0.07X0.07*%
%ADD13C,0.035*%
%ADD14C,0.0314961*%
%ADD15C,0.00787402*%
%ADD16C,0.015748*%
%ADD17C,0.011811*%
%ADD18C,0.0629921*%
%ADD19C,0.01*%
G04 APERTURE END LIST*
G54D10*
G54D11*
X85000Y-35500D03*
X85000Y-34500D03*
X85000Y-33500D03*
X85000Y-32500D03*
X47000Y-35500D03*
X47000Y-34500D03*
X47000Y-33500D03*
X47000Y-32500D03*
X58000Y-31150D03*
X59000Y-31150D03*
X60000Y-31150D03*
G54D12*
X51614Y-37130D03*
X51614Y-34570D03*
X53386Y-37130D03*
X53386Y-34570D03*
X54614Y-37180D03*
X54614Y-34620D03*
X56386Y-37180D03*
X56386Y-34620D03*
G54D13*
X75900Y-31700D03*
X78000Y-31050D03*
X74900Y-31000D03*
X70250Y-32150D03*
X81889Y-31496D03*
X61300Y-31200D03*
X62400Y-36700D03*
X58400Y-32200D03*
X64800Y-36700D03*
X54650Y-32000D03*
X60100Y-32200D03*
X80750Y-35750D03*
X78350Y-36650D03*
X67750Y-30450D03*
X72600Y-30500D03*
X56800Y-30400D03*
X50550Y-30900D03*
X67950Y-36450D03*
X69650Y-35900D03*
X82850Y-34300D03*
X80700Y-34900D03*
X68300Y-33250D03*
X70450Y-33900D03*
X73650Y-33900D03*
X74050Y-34750D03*
X75900Y-34400D03*
X60900Y-33700D03*
X59150Y-33650D03*
X55950Y-33650D03*
X48750Y-33000D03*
X81250Y-37600D03*
X49350Y-37500D03*
X54600Y-35800D03*
X59700Y-35500D03*
X59300Y-35150D03*
X76100Y-32750D03*
X77550Y-31700D03*
X80100Y-32150D03*
X72100Y-31450D03*
X74450Y-32200D03*
X74200Y-31450D03*
X75550Y-37400D03*
X62800Y-37300D03*
X76800Y-32950D03*
X80800Y-32800D03*
X75700Y-33100D03*
X72150Y-32550D03*
X76000Y-36200D03*
X63400Y-37200D03*
X75150Y-37200D03*
X62000Y-32800D03*
X62000Y-31650D03*
X62000Y-35200D03*
X78900Y-35550D03*
X75750Y-32200D03*
X76750Y-31450D03*
X78000Y-33150D03*
X70350Y-36000D03*
X80650Y-33300D03*
X73050Y-32150D03*
X71500Y-31450D03*
X74250Y-36400D03*
X69650Y-33000D03*
X71700Y-32750D03*
X48750Y-32250D03*
X61300Y-37050D03*
X82100Y-32950D03*
X74050Y-32900D03*
X67150Y-32900D03*
X59100Y-33050D03*
X50050Y-32900D03*
X51100Y-31350D03*
X54350Y-31100D03*
X81650Y-33700D03*
X74700Y-33750D03*
X73250Y-34250D03*
X67700Y-34250D03*
X64750Y-34350D03*
X58800Y-34350D03*
G54D14*
X80905Y-31000D02*
X81393Y-31000D01*
X81393Y-31000D02*
X81889Y-31496D01*
G54D15*
X75900Y-31050D02*
X75900Y-31000D01*
X75900Y-31700D02*
X75900Y-31050D01*
G54D16*
X78000Y-31050D02*
X78000Y-31000D01*
X74900Y-30950D02*
X75000Y-31000D01*
X74900Y-31000D02*
X74900Y-30950D01*
X70250Y-32150D02*
X70250Y-31000D01*
G54D14*
X77900Y-31000D02*
X80905Y-31000D01*
X78000Y-31000D02*
X77900Y-31000D01*
X75850Y-31000D02*
X75900Y-31000D01*
X75900Y-31000D02*
X78000Y-31000D01*
X75000Y-31000D02*
X75850Y-31000D01*
X70250Y-31000D02*
X75000Y-31000D01*
X65350Y-31000D02*
X70250Y-31000D01*
X61300Y-31200D02*
X61500Y-31000D01*
X61500Y-31000D02*
X65350Y-31000D01*
G54D17*
X62400Y-36700D02*
X64800Y-36700D01*
G54D14*
X54650Y-32000D02*
X58150Y-32000D01*
X58400Y-32200D02*
X60100Y-32200D01*
X58150Y-32000D02*
X58400Y-32200D01*
G54D16*
X79850Y-36650D02*
X80750Y-35750D01*
X78350Y-36650D02*
X79850Y-36650D01*
G54D14*
X67750Y-30450D02*
X67750Y-30400D01*
X72600Y-30500D02*
X72600Y-30400D01*
X50650Y-30800D02*
X50650Y-30400D01*
X50550Y-30900D02*
X50650Y-30800D01*
G54D18*
X47000Y-32500D02*
X48600Y-30900D01*
X48600Y-30900D02*
X49100Y-30400D01*
X49100Y-30400D02*
X50650Y-30400D01*
X50650Y-30400D02*
X56800Y-30400D01*
X56800Y-30400D02*
X66000Y-30400D01*
X66000Y-30400D02*
X67750Y-30400D01*
X67750Y-30400D02*
X68650Y-30400D01*
X68650Y-30400D02*
X72600Y-30400D01*
X72600Y-30400D02*
X82900Y-30400D01*
X82900Y-30400D02*
X85000Y-32500D01*
G54D15*
X68100Y-36600D02*
X69500Y-36600D01*
X67950Y-36450D02*
X68100Y-36600D01*
X69650Y-36450D02*
X69500Y-36600D01*
X69650Y-35900D02*
X69650Y-36450D01*
G54D16*
X80700Y-34900D02*
X82250Y-34900D01*
X82250Y-34900D02*
X82850Y-34300D01*
X68300Y-33250D02*
X67750Y-33250D01*
X67300Y-33700D02*
X60900Y-33700D01*
X67750Y-33250D02*
X67300Y-33700D01*
X72800Y-33900D02*
X73650Y-33900D01*
X70450Y-33900D02*
X72800Y-33900D01*
X74050Y-34750D02*
X74400Y-34400D01*
X74400Y-34400D02*
X75750Y-34400D01*
X75750Y-34400D02*
X75900Y-34400D01*
G54D15*
X60900Y-33700D02*
X60900Y-33700D01*
G54D17*
X59150Y-33650D02*
X57100Y-33650D01*
X55950Y-33650D02*
X57100Y-33650D01*
G54D16*
X47000Y-33500D02*
X48250Y-33500D01*
X48250Y-33500D02*
X48750Y-33000D01*
X81100Y-37750D02*
X78050Y-37750D01*
X81250Y-37600D02*
X81100Y-37750D01*
X60400Y-37750D02*
X78050Y-37750D01*
X60450Y-37750D02*
X60400Y-37750D01*
X60400Y-37750D02*
X58100Y-37750D01*
X58100Y-37750D02*
X51000Y-37750D01*
X49600Y-37750D02*
X51000Y-37750D01*
X51000Y-37750D02*
X50950Y-37750D01*
X49350Y-37500D02*
X49600Y-37750D01*
G54D15*
X56200Y-35600D02*
X54800Y-35600D01*
X54800Y-35600D02*
X54600Y-35800D01*
X56400Y-35600D02*
X56200Y-35600D01*
X59600Y-35600D02*
X59700Y-35500D01*
X56400Y-35600D02*
X59600Y-35600D01*
X52550Y-35400D02*
X52444Y-35400D01*
X52444Y-35400D02*
X51614Y-34570D01*
X59050Y-35400D02*
X52550Y-35400D01*
X59300Y-35150D02*
X59050Y-35400D01*
X75000Y-32750D02*
X74450Y-32200D01*
X76100Y-32750D02*
X75000Y-32750D01*
X79650Y-31700D02*
X77550Y-31700D01*
X80100Y-32150D02*
X79650Y-31700D01*
X72100Y-31450D02*
X74200Y-31450D01*
X74200Y-31950D02*
X74450Y-32200D01*
X74200Y-31450D02*
X74200Y-31950D01*
X64150Y-37550D02*
X75400Y-37550D01*
X75400Y-37550D02*
X75550Y-37400D01*
X63050Y-37550D02*
X64150Y-37550D01*
X64150Y-37550D02*
X64200Y-37550D01*
X62800Y-37300D02*
X63050Y-37550D01*
X80500Y-32800D02*
X76950Y-32800D01*
X76950Y-32800D02*
X76800Y-32950D01*
X80500Y-32800D02*
X80800Y-32800D01*
X74350Y-32550D02*
X74550Y-32550D01*
X75600Y-33000D02*
X75700Y-33100D01*
X75000Y-33000D02*
X75600Y-33000D01*
X74550Y-32550D02*
X75000Y-33000D01*
X72150Y-32550D02*
X74350Y-32550D01*
X76000Y-36350D02*
X75150Y-37200D01*
X76000Y-36200D02*
X76000Y-36350D01*
X64500Y-37350D02*
X75000Y-37350D01*
X63400Y-37200D02*
X63550Y-37350D01*
X63550Y-37350D02*
X64500Y-37350D01*
X75000Y-37350D02*
X75150Y-37200D01*
G54D17*
X75900Y-33750D02*
X81600Y-33750D01*
X81600Y-33750D02*
X81650Y-33700D01*
X75900Y-33750D02*
X74700Y-33750D01*
X73100Y-34250D02*
X73250Y-34250D01*
X67700Y-34250D02*
X73100Y-34250D01*
X58800Y-34350D02*
X64750Y-34350D01*
G54D10*
G36*
X85812Y-35422D02*
X85469Y-35764D01*
X85469Y-35416D01*
X85468Y-35412D01*
X85468Y-34407D01*
X85468Y-33407D01*
X85397Y-33235D01*
X85265Y-33103D01*
X85093Y-33031D01*
X84907Y-33031D01*
X84735Y-33102D01*
X84603Y-33234D01*
X84531Y-33406D01*
X84531Y-33592D01*
X84602Y-33764D01*
X84734Y-33896D01*
X84906Y-33968D01*
X85092Y-33968D01*
X85264Y-33897D01*
X85396Y-33765D01*
X85468Y-33593D01*
X85468Y-33407D01*
X85468Y-34407D01*
X85397Y-34235D01*
X85265Y-34103D01*
X85093Y-34031D01*
X84907Y-34031D01*
X84735Y-34102D01*
X84603Y-34234D01*
X84531Y-34406D01*
X84531Y-34592D01*
X84602Y-34764D01*
X84734Y-34896D01*
X84906Y-34968D01*
X85092Y-34968D01*
X85264Y-34897D01*
X85396Y-34765D01*
X85468Y-34593D01*
X85468Y-34407D01*
X85468Y-35412D01*
X85402Y-35242D01*
X85391Y-35226D01*
X85314Y-35198D01*
X85301Y-35211D01*
X85301Y-35185D01*
X85273Y-35108D01*
X85102Y-35033D01*
X84916Y-35030D01*
X84742Y-35097D01*
X84726Y-35108D01*
X84698Y-35185D01*
X85000Y-35487D01*
X85301Y-35185D01*
X85301Y-35211D01*
X85012Y-35500D01*
X85314Y-35801D01*
X85391Y-35773D01*
X85466Y-35602D01*
X85469Y-35416D01*
X85469Y-35764D01*
X85301Y-35933D01*
X85301Y-35814D01*
X85000Y-35512D01*
X84987Y-35525D01*
X84987Y-35500D01*
X84685Y-35198D01*
X84608Y-35226D01*
X84533Y-35397D01*
X84530Y-35583D01*
X84597Y-35757D01*
X84608Y-35773D01*
X84685Y-35801D01*
X84987Y-35500D01*
X84987Y-35525D01*
X84698Y-35814D01*
X84726Y-35891D01*
X84897Y-35966D01*
X85083Y-35969D01*
X85257Y-35902D01*
X85273Y-35891D01*
X85301Y-35814D01*
X85301Y-35933D01*
X83422Y-37812D01*
X83333Y-37812D01*
X83333Y-31768D01*
X83333Y-31732D01*
X83333Y-31695D01*
X83333Y-31695D01*
X83333Y-31695D01*
X83333Y-31695D01*
X83315Y-31605D01*
X83315Y-31605D01*
X83287Y-31537D01*
X83236Y-31460D01*
X83184Y-31409D01*
X83184Y-31408D01*
X83108Y-31357D01*
X83107Y-31357D01*
X83040Y-31329D01*
X82949Y-31311D01*
X82876Y-31311D01*
X82876Y-31312D01*
X82786Y-31329D01*
X82786Y-31329D01*
X82718Y-31357D01*
X82641Y-31409D01*
X82590Y-31461D01*
X82589Y-31461D01*
X82539Y-31537D01*
X82538Y-31537D01*
X82510Y-31605D01*
X82492Y-31695D01*
X82492Y-31732D01*
X82492Y-31768D01*
X82510Y-31859D01*
X82538Y-31926D01*
X82539Y-31927D01*
X82589Y-32003D01*
X82590Y-32003D01*
X82641Y-32055D01*
X82718Y-32106D01*
X82786Y-32134D01*
X82786Y-32134D01*
X82876Y-32152D01*
X82876Y-32152D01*
X82949Y-32152D01*
X83040Y-32134D01*
X83107Y-32106D01*
X83108Y-32106D01*
X83184Y-32055D01*
X83184Y-32055D01*
X83236Y-32003D01*
X83287Y-31927D01*
X83315Y-31859D01*
X83315Y-31859D01*
X83333Y-31769D01*
X83333Y-31769D01*
X83333Y-31769D01*
X83333Y-31768D01*
X83333Y-37812D01*
X83193Y-37812D01*
X83193Y-34232D01*
X83141Y-34105D01*
X83044Y-34009D01*
X82918Y-33956D01*
X82782Y-33956D01*
X82655Y-34008D01*
X82559Y-34105D01*
X82506Y-34231D01*
X82506Y-34294D01*
X82147Y-34653D01*
X81993Y-34653D01*
X81993Y-33632D01*
X81941Y-33505D01*
X81844Y-33409D01*
X81718Y-33356D01*
X81582Y-33356D01*
X81455Y-33408D01*
X81359Y-33505D01*
X81352Y-33522D01*
X81143Y-33522D01*
X81143Y-32732D01*
X81091Y-32605D01*
X80994Y-32509D01*
X80868Y-32456D01*
X80732Y-32456D01*
X80605Y-32508D01*
X80522Y-32592D01*
X80500Y-32592D01*
X80443Y-32592D01*
X80443Y-32082D01*
X80391Y-31955D01*
X80294Y-31859D01*
X80168Y-31806D01*
X80050Y-31806D01*
X79796Y-31553D01*
X79729Y-31508D01*
X79650Y-31492D01*
X77827Y-31492D01*
X77744Y-31409D01*
X77618Y-31356D01*
X77482Y-31356D01*
X77355Y-31408D01*
X77259Y-31505D01*
X77206Y-31631D01*
X77206Y-31767D01*
X77258Y-31894D01*
X77355Y-31990D01*
X77481Y-32043D01*
X77617Y-32043D01*
X77744Y-31991D01*
X77827Y-31907D01*
X79564Y-31907D01*
X79756Y-32100D01*
X79756Y-32217D01*
X79808Y-32344D01*
X79905Y-32440D01*
X80031Y-32493D01*
X80167Y-32493D01*
X80294Y-32441D01*
X80390Y-32344D01*
X80443Y-32218D01*
X80443Y-32082D01*
X80443Y-32592D01*
X76950Y-32592D01*
X76871Y-32608D01*
X76868Y-32606D01*
X76732Y-32606D01*
X76605Y-32658D01*
X76509Y-32755D01*
X76456Y-32881D01*
X76456Y-33017D01*
X76508Y-33144D01*
X76605Y-33240D01*
X76731Y-33293D01*
X76867Y-33293D01*
X76994Y-33241D01*
X77090Y-33144D01*
X77143Y-33018D01*
X77143Y-33007D01*
X80500Y-33007D01*
X80522Y-33007D01*
X80605Y-33090D01*
X80731Y-33143D01*
X80867Y-33143D01*
X80994Y-33091D01*
X81090Y-32994D01*
X81143Y-32868D01*
X81143Y-32732D01*
X81143Y-33522D01*
X75900Y-33522D01*
X74958Y-33522D01*
X74894Y-33459D01*
X74768Y-33406D01*
X74632Y-33406D01*
X74505Y-33458D01*
X74409Y-33555D01*
X74356Y-33681D01*
X74356Y-33817D01*
X74408Y-33944D01*
X74505Y-34040D01*
X74631Y-34093D01*
X74767Y-34093D01*
X74894Y-34041D01*
X74958Y-33977D01*
X75900Y-33977D01*
X81441Y-33977D01*
X81455Y-33990D01*
X81581Y-34043D01*
X81717Y-34043D01*
X81844Y-33991D01*
X81940Y-33894D01*
X81993Y-33768D01*
X81993Y-33632D01*
X81993Y-34653D01*
X80938Y-34653D01*
X80894Y-34609D01*
X80768Y-34556D01*
X80632Y-34556D01*
X80505Y-34608D01*
X80409Y-34705D01*
X80356Y-34831D01*
X80356Y-34967D01*
X80408Y-35094D01*
X80505Y-35190D01*
X80631Y-35243D01*
X80767Y-35243D01*
X80894Y-35191D01*
X80938Y-35146D01*
X82250Y-35146D01*
X82344Y-35128D01*
X82344Y-35128D01*
X82424Y-35074D01*
X82855Y-34643D01*
X82917Y-34643D01*
X83044Y-34591D01*
X83140Y-34494D01*
X83193Y-34368D01*
X83193Y-34232D01*
X83193Y-37812D01*
X81523Y-37812D01*
X81540Y-37794D01*
X81593Y-37668D01*
X81593Y-37532D01*
X81541Y-37405D01*
X81444Y-37309D01*
X81318Y-37256D01*
X81182Y-37256D01*
X81093Y-37293D01*
X81093Y-35682D01*
X81041Y-35555D01*
X80944Y-35459D01*
X80818Y-35406D01*
X80682Y-35406D01*
X80555Y-35458D01*
X80459Y-35555D01*
X80406Y-35681D01*
X80406Y-35744D01*
X79747Y-36403D01*
X79115Y-36403D01*
X79158Y-36360D01*
X79211Y-36233D01*
X79211Y-36096D01*
X79158Y-35969D01*
X79061Y-35872D01*
X78934Y-35819D01*
X78797Y-35819D01*
X78670Y-35872D01*
X78573Y-35969D01*
X78520Y-36096D01*
X78520Y-36233D01*
X78573Y-36360D01*
X78616Y-36403D01*
X78588Y-36403D01*
X78544Y-36359D01*
X78418Y-36306D01*
X78282Y-36306D01*
X78155Y-36358D01*
X78059Y-36455D01*
X78006Y-36581D01*
X78006Y-36717D01*
X78058Y-36844D01*
X78155Y-36940D01*
X78281Y-36993D01*
X78417Y-36993D01*
X78544Y-36941D01*
X78588Y-36896D01*
X79850Y-36896D01*
X79944Y-36878D01*
X79944Y-36878D01*
X80024Y-36824D01*
X80755Y-36093D01*
X80817Y-36093D01*
X80944Y-36041D01*
X81040Y-35944D01*
X81093Y-35818D01*
X81093Y-35682D01*
X81093Y-37293D01*
X81055Y-37308D01*
X80959Y-37405D01*
X80918Y-37503D01*
X78050Y-37503D01*
X77479Y-37503D01*
X77479Y-36096D01*
X77426Y-35969D01*
X77329Y-35872D01*
X77202Y-35819D01*
X77065Y-35819D01*
X76938Y-35872D01*
X76841Y-35969D01*
X76788Y-36096D01*
X76788Y-36233D01*
X76841Y-36360D01*
X76938Y-36457D01*
X77065Y-36510D01*
X77202Y-36510D01*
X77329Y-36457D01*
X77426Y-36360D01*
X77479Y-36233D01*
X77479Y-36096D01*
X77479Y-37503D01*
X75878Y-37503D01*
X75893Y-37468D01*
X75893Y-37332D01*
X75841Y-37205D01*
X75744Y-37109D01*
X75618Y-37056D01*
X75586Y-37056D01*
X76122Y-36520D01*
X76194Y-36491D01*
X76290Y-36394D01*
X76343Y-36268D01*
X76343Y-36132D01*
X76291Y-36005D01*
X76243Y-35957D01*
X76243Y-34332D01*
X76191Y-34205D01*
X76094Y-34109D01*
X75968Y-34056D01*
X75832Y-34056D01*
X75705Y-34108D01*
X75661Y-34153D01*
X74400Y-34153D01*
X74305Y-34171D01*
X74225Y-34225D01*
X74225Y-34225D01*
X74225Y-34225D01*
X74044Y-34406D01*
X73993Y-34406D01*
X73993Y-33832D01*
X73941Y-33705D01*
X73844Y-33609D01*
X73718Y-33556D01*
X73582Y-33556D01*
X73455Y-33608D01*
X73411Y-33653D01*
X72800Y-33653D01*
X70688Y-33653D01*
X70644Y-33609D01*
X70518Y-33556D01*
X70382Y-33556D01*
X70255Y-33608D01*
X70159Y-33705D01*
X70106Y-33831D01*
X70106Y-33967D01*
X70129Y-34022D01*
X68924Y-34022D01*
X68924Y-31926D01*
X68924Y-31889D01*
X68924Y-31853D01*
X68924Y-31852D01*
X68924Y-31852D01*
X68924Y-31852D01*
X68906Y-31762D01*
X68906Y-31762D01*
X68878Y-31694D01*
X68827Y-31618D01*
X68775Y-31566D01*
X68774Y-31566D01*
X68698Y-31515D01*
X68698Y-31515D01*
X68630Y-31487D01*
X68540Y-31469D01*
X68467Y-31469D01*
X68466Y-31469D01*
X68377Y-31487D01*
X68376Y-31487D01*
X68309Y-31515D01*
X68232Y-31566D01*
X68180Y-31618D01*
X68180Y-31618D01*
X68129Y-31694D01*
X68129Y-31695D01*
X68101Y-31762D01*
X68083Y-31853D01*
X68083Y-31889D01*
X68083Y-31926D01*
X68101Y-32016D01*
X68129Y-32084D01*
X68129Y-32084D01*
X68180Y-32160D01*
X68180Y-32160D01*
X68232Y-32212D01*
X68309Y-32264D01*
X68376Y-32292D01*
X68377Y-32292D01*
X68466Y-32309D01*
X68467Y-32310D01*
X68540Y-32310D01*
X68630Y-32292D01*
X68698Y-32264D01*
X68698Y-32264D01*
X68774Y-32213D01*
X68775Y-32213D01*
X68827Y-32161D01*
X68878Y-32084D01*
X68906Y-32017D01*
X68906Y-32016D01*
X68924Y-31926D01*
X68924Y-31926D01*
X68924Y-31926D01*
X68924Y-31926D01*
X68924Y-34022D01*
X68643Y-34022D01*
X68643Y-33182D01*
X68591Y-33055D01*
X68494Y-32959D01*
X68368Y-32906D01*
X68232Y-32906D01*
X68105Y-32958D01*
X68061Y-33003D01*
X67750Y-33003D01*
X67655Y-33021D01*
X67575Y-33075D01*
X67197Y-33453D01*
X61138Y-33453D01*
X61094Y-33409D01*
X60968Y-33356D01*
X60832Y-33356D01*
X60705Y-33408D01*
X60609Y-33505D01*
X60556Y-33631D01*
X60556Y-33767D01*
X60608Y-33894D01*
X60705Y-33990D01*
X60831Y-34043D01*
X60967Y-34043D01*
X61094Y-33991D01*
X61138Y-33946D01*
X67300Y-33946D01*
X67394Y-33928D01*
X67394Y-33928D01*
X67474Y-33874D01*
X67852Y-33496D01*
X68061Y-33496D01*
X68105Y-33540D01*
X68231Y-33593D01*
X68367Y-33593D01*
X68494Y-33541D01*
X68590Y-33444D01*
X68643Y-33318D01*
X68643Y-33182D01*
X68643Y-34022D01*
X67958Y-34022D01*
X67894Y-33959D01*
X67768Y-33906D01*
X67632Y-33906D01*
X67505Y-33958D01*
X67409Y-34055D01*
X67356Y-34181D01*
X67356Y-34317D01*
X67408Y-34444D01*
X67505Y-34540D01*
X67631Y-34593D01*
X67767Y-34593D01*
X67894Y-34541D01*
X67958Y-34477D01*
X72991Y-34477D01*
X73055Y-34540D01*
X73181Y-34593D01*
X73317Y-34593D01*
X73444Y-34541D01*
X73540Y-34444D01*
X73593Y-34318D01*
X73593Y-34243D01*
X73717Y-34243D01*
X73844Y-34191D01*
X73940Y-34094D01*
X73993Y-33968D01*
X73993Y-33832D01*
X73993Y-34406D01*
X73982Y-34406D01*
X73855Y-34458D01*
X73759Y-34555D01*
X73706Y-34681D01*
X73706Y-34817D01*
X73758Y-34944D01*
X73855Y-35040D01*
X73981Y-35093D01*
X74117Y-35093D01*
X74244Y-35041D01*
X74340Y-34944D01*
X74393Y-34818D01*
X74393Y-34755D01*
X74502Y-34646D01*
X75661Y-34646D01*
X75705Y-34690D01*
X75831Y-34743D01*
X75967Y-34743D01*
X76094Y-34691D01*
X76190Y-34594D01*
X76243Y-34468D01*
X76243Y-34332D01*
X76243Y-35957D01*
X76194Y-35909D01*
X76068Y-35856D01*
X75932Y-35856D01*
X75805Y-35908D01*
X75709Y-36005D01*
X75656Y-36131D01*
X75656Y-36267D01*
X75695Y-36361D01*
X75199Y-36856D01*
X75082Y-36856D01*
X74955Y-36908D01*
X74859Y-37005D01*
X74806Y-37131D01*
X74806Y-37142D01*
X71211Y-37142D01*
X71211Y-36096D01*
X71158Y-35969D01*
X71061Y-35872D01*
X70934Y-35819D01*
X70797Y-35819D01*
X70670Y-35872D01*
X70573Y-35969D01*
X70520Y-36096D01*
X70520Y-36233D01*
X70573Y-36360D01*
X70670Y-36457D01*
X70797Y-36510D01*
X70934Y-36510D01*
X71061Y-36457D01*
X71158Y-36360D01*
X71211Y-36233D01*
X71211Y-36096D01*
X71211Y-37142D01*
X69993Y-37142D01*
X69993Y-35832D01*
X69941Y-35705D01*
X69844Y-35609D01*
X69718Y-35556D01*
X69582Y-35556D01*
X69455Y-35608D01*
X69359Y-35705D01*
X69306Y-35831D01*
X69306Y-35863D01*
X69202Y-35819D01*
X69065Y-35819D01*
X68938Y-35872D01*
X68841Y-35969D01*
X68788Y-36096D01*
X68788Y-36233D01*
X68841Y-36360D01*
X68873Y-36392D01*
X68293Y-36392D01*
X68293Y-36382D01*
X68241Y-36255D01*
X68144Y-36159D01*
X68018Y-36106D01*
X67882Y-36106D01*
X67755Y-36158D01*
X67659Y-36255D01*
X67606Y-36381D01*
X67606Y-36517D01*
X67658Y-36644D01*
X67755Y-36740D01*
X67881Y-36793D01*
X68017Y-36793D01*
X68021Y-36791D01*
X68021Y-36791D01*
X68100Y-36807D01*
X69500Y-36807D01*
X69579Y-36791D01*
X69579Y-36791D01*
X69646Y-36746D01*
X69796Y-36596D01*
X69796Y-36596D01*
X69826Y-36551D01*
X69841Y-36529D01*
X69841Y-36529D01*
X69857Y-36450D01*
X69857Y-36450D01*
X69857Y-36177D01*
X69940Y-36094D01*
X69993Y-35968D01*
X69993Y-35832D01*
X69993Y-37142D01*
X64500Y-37142D01*
X63743Y-37142D01*
X63743Y-37132D01*
X63691Y-37005D01*
X63612Y-36927D01*
X64541Y-36927D01*
X64605Y-36990D01*
X64731Y-37043D01*
X64867Y-37043D01*
X64994Y-36991D01*
X65090Y-36894D01*
X65143Y-36768D01*
X65143Y-36632D01*
X65093Y-36511D01*
X65093Y-34282D01*
X65041Y-34155D01*
X64944Y-34059D01*
X64818Y-34006D01*
X64682Y-34006D01*
X64555Y-34058D01*
X64491Y-34122D01*
X60443Y-34122D01*
X60443Y-32132D01*
X60391Y-32005D01*
X60294Y-31909D01*
X60168Y-31856D01*
X60032Y-31856D01*
X59989Y-31874D01*
X58513Y-31874D01*
X58353Y-31745D01*
X58312Y-31724D01*
X58301Y-31717D01*
X58301Y-31464D01*
X58000Y-31162D01*
X57698Y-31464D01*
X57726Y-31541D01*
X57897Y-31616D01*
X58083Y-31619D01*
X58257Y-31552D01*
X58273Y-31541D01*
X58301Y-31464D01*
X58301Y-31717D01*
X58274Y-31699D01*
X58256Y-31695D01*
X58240Y-31687D01*
X58195Y-31683D01*
X58150Y-31674D01*
X54760Y-31674D01*
X54718Y-31656D01*
X54582Y-31656D01*
X54455Y-31708D01*
X54359Y-31805D01*
X54306Y-31931D01*
X54306Y-32067D01*
X54358Y-32194D01*
X54455Y-32290D01*
X54581Y-32343D01*
X54717Y-32343D01*
X54760Y-32325D01*
X58035Y-32325D01*
X58102Y-32379D01*
X58108Y-32394D01*
X58205Y-32490D01*
X58331Y-32543D01*
X58467Y-32543D01*
X58510Y-32525D01*
X59989Y-32525D01*
X60031Y-32543D01*
X60167Y-32543D01*
X60294Y-32491D01*
X60390Y-32394D01*
X60443Y-32268D01*
X60443Y-32132D01*
X60443Y-34122D01*
X59493Y-34122D01*
X59493Y-33582D01*
X59441Y-33455D01*
X59344Y-33359D01*
X59218Y-33306D01*
X59082Y-33306D01*
X58955Y-33358D01*
X58891Y-33422D01*
X57100Y-33422D01*
X56208Y-33422D01*
X56144Y-33359D01*
X56018Y-33306D01*
X55882Y-33306D01*
X55755Y-33358D01*
X55659Y-33455D01*
X55606Y-33581D01*
X55606Y-33717D01*
X55658Y-33844D01*
X55755Y-33940D01*
X55881Y-33993D01*
X56017Y-33993D01*
X56144Y-33941D01*
X56208Y-33877D01*
X57100Y-33877D01*
X58891Y-33877D01*
X58955Y-33940D01*
X59081Y-33993D01*
X59217Y-33993D01*
X59344Y-33941D01*
X59440Y-33844D01*
X59493Y-33718D01*
X59493Y-33582D01*
X59493Y-34122D01*
X59058Y-34122D01*
X58994Y-34059D01*
X58868Y-34006D01*
X58732Y-34006D01*
X58605Y-34058D01*
X58509Y-34155D01*
X58456Y-34281D01*
X58456Y-34417D01*
X58508Y-34544D01*
X58605Y-34640D01*
X58731Y-34693D01*
X58867Y-34693D01*
X58994Y-34641D01*
X59058Y-34577D01*
X64491Y-34577D01*
X64555Y-34640D01*
X64681Y-34693D01*
X64817Y-34693D01*
X64944Y-34641D01*
X65040Y-34544D01*
X65093Y-34418D01*
X65093Y-34282D01*
X65093Y-36511D01*
X65091Y-36505D01*
X64994Y-36409D01*
X64868Y-36356D01*
X64732Y-36356D01*
X64605Y-36408D01*
X64541Y-36472D01*
X62658Y-36472D01*
X62594Y-36409D01*
X62468Y-36356D01*
X62332Y-36356D01*
X62205Y-36408D01*
X62109Y-36505D01*
X62056Y-36631D01*
X62056Y-36767D01*
X62108Y-36894D01*
X62205Y-36990D01*
X62331Y-37043D01*
X62467Y-37043D01*
X62594Y-36991D01*
X62658Y-36927D01*
X63187Y-36927D01*
X63109Y-37005D01*
X63074Y-37089D01*
X62994Y-37009D01*
X62868Y-36956D01*
X62732Y-36956D01*
X62605Y-37008D01*
X62509Y-37105D01*
X62456Y-37231D01*
X62456Y-37367D01*
X62508Y-37494D01*
X62517Y-37503D01*
X60450Y-37503D01*
X60400Y-37503D01*
X60043Y-37503D01*
X60043Y-35432D01*
X59991Y-35305D01*
X59894Y-35209D01*
X59768Y-35156D01*
X59643Y-35156D01*
X59643Y-35082D01*
X59591Y-34955D01*
X59494Y-34859D01*
X59368Y-34806D01*
X59232Y-34806D01*
X59105Y-34858D01*
X59009Y-34955D01*
X58956Y-35081D01*
X58956Y-35192D01*
X56904Y-35192D01*
X56904Y-35003D01*
X56904Y-34236D01*
X56878Y-34174D01*
X56831Y-34127D01*
X56769Y-34101D01*
X56702Y-34101D01*
X56437Y-34101D01*
X56395Y-34143D01*
X56395Y-34610D01*
X56862Y-34610D01*
X56904Y-34568D01*
X56904Y-34236D01*
X56904Y-35003D01*
X56904Y-34671D01*
X56862Y-34629D01*
X56395Y-34629D01*
X56395Y-35096D01*
X56437Y-35138D01*
X56702Y-35138D01*
X56769Y-35138D01*
X56831Y-35112D01*
X56878Y-35065D01*
X56904Y-35003D01*
X56904Y-35192D01*
X56376Y-35192D01*
X56376Y-35096D01*
X56376Y-34629D01*
X56376Y-34610D01*
X56376Y-34143D01*
X56334Y-34101D01*
X56069Y-34101D01*
X56002Y-34101D01*
X55940Y-34127D01*
X55893Y-34174D01*
X55867Y-34236D01*
X55867Y-34568D01*
X55909Y-34610D01*
X56376Y-34610D01*
X56376Y-34629D01*
X55909Y-34629D01*
X55867Y-34671D01*
X55867Y-35003D01*
X55893Y-35065D01*
X55940Y-35112D01*
X56002Y-35138D01*
X56069Y-35138D01*
X56334Y-35138D01*
X56376Y-35096D01*
X56376Y-35192D01*
X55132Y-35192D01*
X55132Y-34936D01*
X55132Y-34236D01*
X55106Y-34174D01*
X55059Y-34127D01*
X54997Y-34101D01*
X54930Y-34101D01*
X54230Y-34101D01*
X54168Y-34127D01*
X54121Y-34174D01*
X54095Y-34236D01*
X54095Y-34303D01*
X54095Y-35003D01*
X54121Y-35065D01*
X54168Y-35112D01*
X54230Y-35138D01*
X54297Y-35138D01*
X54997Y-35138D01*
X55059Y-35112D01*
X55106Y-35065D01*
X55132Y-35003D01*
X55132Y-34936D01*
X55132Y-35192D01*
X53904Y-35192D01*
X53904Y-34953D01*
X53904Y-34186D01*
X53878Y-34124D01*
X53831Y-34077D01*
X53769Y-34051D01*
X53702Y-34051D01*
X53437Y-34051D01*
X53395Y-34093D01*
X53395Y-34560D01*
X53862Y-34560D01*
X53904Y-34518D01*
X53904Y-34186D01*
X53904Y-34953D01*
X53904Y-34621D01*
X53862Y-34579D01*
X53395Y-34579D01*
X53395Y-35046D01*
X53437Y-35088D01*
X53702Y-35088D01*
X53769Y-35088D01*
X53831Y-35062D01*
X53878Y-35015D01*
X53904Y-34953D01*
X53904Y-35192D01*
X53376Y-35192D01*
X53376Y-35046D01*
X53376Y-34579D01*
X53376Y-34560D01*
X53376Y-34093D01*
X53334Y-34051D01*
X53069Y-34051D01*
X53002Y-34051D01*
X52940Y-34077D01*
X52893Y-34124D01*
X52867Y-34186D01*
X52867Y-34518D01*
X52909Y-34560D01*
X53376Y-34560D01*
X53376Y-34579D01*
X52909Y-34579D01*
X52867Y-34621D01*
X52867Y-34953D01*
X52893Y-35015D01*
X52940Y-35062D01*
X53002Y-35088D01*
X53069Y-35088D01*
X53334Y-35088D01*
X53376Y-35046D01*
X53376Y-35192D01*
X52550Y-35192D01*
X52529Y-35192D01*
X52132Y-34794D01*
X52132Y-34186D01*
X52106Y-34124D01*
X52059Y-34077D01*
X51997Y-34051D01*
X51930Y-34051D01*
X51230Y-34051D01*
X51168Y-34077D01*
X51121Y-34124D01*
X51095Y-34186D01*
X51095Y-34253D01*
X51095Y-34953D01*
X51121Y-35015D01*
X51168Y-35062D01*
X51230Y-35088D01*
X51297Y-35088D01*
X51838Y-35088D01*
X52297Y-35546D01*
X52364Y-35591D01*
X52364Y-35591D01*
X52444Y-35607D01*
X52550Y-35607D01*
X54308Y-35607D01*
X54256Y-35731D01*
X54256Y-35867D01*
X54308Y-35994D01*
X54405Y-36090D01*
X54531Y-36143D01*
X54667Y-36143D01*
X54794Y-36091D01*
X54890Y-35994D01*
X54943Y-35868D01*
X54943Y-35807D01*
X56200Y-35807D01*
X56400Y-35807D01*
X59545Y-35807D01*
X59631Y-35843D01*
X59767Y-35843D01*
X59894Y-35791D01*
X59990Y-35694D01*
X60043Y-35568D01*
X60043Y-35432D01*
X60043Y-37503D01*
X58215Y-37503D01*
X58215Y-36808D01*
X58215Y-36771D01*
X58215Y-36735D01*
X58215Y-36734D01*
X58215Y-36734D01*
X58215Y-36734D01*
X58197Y-36644D01*
X58197Y-36644D01*
X58169Y-36576D01*
X58118Y-36500D01*
X58066Y-36448D01*
X58066Y-36448D01*
X57990Y-36397D01*
X57989Y-36397D01*
X57922Y-36369D01*
X57831Y-36351D01*
X57758Y-36351D01*
X57758Y-36351D01*
X57668Y-36369D01*
X57668Y-36369D01*
X57600Y-36397D01*
X57523Y-36448D01*
X57472Y-36500D01*
X57471Y-36500D01*
X57420Y-36576D01*
X57420Y-36577D01*
X57392Y-36644D01*
X57374Y-36735D01*
X57374Y-36771D01*
X57374Y-36808D01*
X57392Y-36898D01*
X57420Y-36966D01*
X57420Y-36966D01*
X57471Y-37042D01*
X57472Y-37042D01*
X57523Y-37094D01*
X57600Y-37146D01*
X57668Y-37174D01*
X57668Y-37174D01*
X57758Y-37191D01*
X57758Y-37192D01*
X57831Y-37192D01*
X57922Y-37174D01*
X57989Y-37146D01*
X57990Y-37145D01*
X58066Y-37095D01*
X58066Y-37094D01*
X58118Y-37043D01*
X58169Y-36966D01*
X58197Y-36898D01*
X58197Y-36898D01*
X58215Y-36808D01*
X58215Y-36808D01*
X58215Y-36808D01*
X58215Y-36808D01*
X58215Y-37503D01*
X58100Y-37503D01*
X56904Y-37503D01*
X56904Y-36796D01*
X56878Y-36734D01*
X56831Y-36687D01*
X56769Y-36661D01*
X56702Y-36661D01*
X56437Y-36661D01*
X56395Y-36703D01*
X56395Y-37170D01*
X56862Y-37170D01*
X56904Y-37128D01*
X56904Y-36796D01*
X56904Y-37503D01*
X56904Y-37503D01*
X56904Y-37231D01*
X56862Y-37189D01*
X56395Y-37189D01*
X56395Y-37196D01*
X56376Y-37196D01*
X56376Y-37189D01*
X56376Y-37170D01*
X56376Y-36703D01*
X56334Y-36661D01*
X56069Y-36661D01*
X56002Y-36661D01*
X55940Y-36687D01*
X55893Y-36734D01*
X55867Y-36796D01*
X55867Y-37128D01*
X55909Y-37170D01*
X56376Y-37170D01*
X56376Y-37189D01*
X55909Y-37189D01*
X55867Y-37231D01*
X55867Y-37503D01*
X55132Y-37503D01*
X55132Y-37496D01*
X55132Y-36796D01*
X55106Y-36734D01*
X55059Y-36687D01*
X54997Y-36661D01*
X54930Y-36661D01*
X54230Y-36661D01*
X54168Y-36687D01*
X54121Y-36734D01*
X54095Y-36796D01*
X54095Y-36863D01*
X54095Y-37503D01*
X53904Y-37503D01*
X53904Y-36746D01*
X53878Y-36684D01*
X53831Y-36637D01*
X53769Y-36611D01*
X53702Y-36611D01*
X53437Y-36611D01*
X53395Y-36653D01*
X53395Y-37120D01*
X53862Y-37120D01*
X53904Y-37078D01*
X53904Y-36746D01*
X53904Y-37503D01*
X53904Y-37503D01*
X53904Y-37181D01*
X53862Y-37139D01*
X53395Y-37139D01*
X53395Y-37146D01*
X53376Y-37146D01*
X53376Y-37139D01*
X53376Y-37120D01*
X53376Y-36653D01*
X53334Y-36611D01*
X53069Y-36611D01*
X53002Y-36611D01*
X52940Y-36637D01*
X52893Y-36684D01*
X52867Y-36746D01*
X52867Y-37078D01*
X52909Y-37120D01*
X53376Y-37120D01*
X53376Y-37139D01*
X52909Y-37139D01*
X52867Y-37181D01*
X52867Y-37503D01*
X52132Y-37503D01*
X52132Y-37446D01*
X52132Y-36746D01*
X52106Y-36684D01*
X52059Y-36637D01*
X51997Y-36611D01*
X51930Y-36611D01*
X51230Y-36611D01*
X51168Y-36637D01*
X51121Y-36684D01*
X51095Y-36746D01*
X51095Y-36813D01*
X51095Y-37503D01*
X51000Y-37503D01*
X50950Y-37503D01*
X49702Y-37503D01*
X49693Y-37494D01*
X49693Y-37432D01*
X49641Y-37305D01*
X49544Y-37209D01*
X49418Y-37156D01*
X49282Y-37156D01*
X49155Y-37208D01*
X49093Y-37271D01*
X49093Y-32932D01*
X49041Y-32805D01*
X48944Y-32709D01*
X48818Y-32656D01*
X48682Y-32656D01*
X48555Y-32708D01*
X48459Y-32805D01*
X48406Y-32931D01*
X48406Y-32994D01*
X48147Y-33253D01*
X47404Y-33253D01*
X47397Y-33235D01*
X47265Y-33103D01*
X47093Y-33031D01*
X46907Y-33031D01*
X46735Y-33102D01*
X46603Y-33234D01*
X46531Y-33406D01*
X46531Y-33592D01*
X46602Y-33764D01*
X46734Y-33896D01*
X46906Y-33968D01*
X47092Y-33968D01*
X47264Y-33897D01*
X47396Y-33765D01*
X47404Y-33746D01*
X48250Y-33746D01*
X48344Y-33728D01*
X48344Y-33728D01*
X48424Y-33674D01*
X48755Y-33343D01*
X48817Y-33343D01*
X48944Y-33291D01*
X49040Y-33194D01*
X49093Y-33068D01*
X49093Y-32932D01*
X49093Y-37271D01*
X49059Y-37305D01*
X49006Y-37431D01*
X49006Y-37567D01*
X49058Y-37694D01*
X49155Y-37790D01*
X49207Y-37812D01*
X48577Y-37812D01*
X47469Y-36704D01*
X47469Y-35416D01*
X47468Y-35412D01*
X47468Y-34407D01*
X47397Y-34235D01*
X47265Y-34103D01*
X47093Y-34031D01*
X46907Y-34031D01*
X46735Y-34102D01*
X46603Y-34234D01*
X46531Y-34406D01*
X46531Y-34592D01*
X46602Y-34764D01*
X46734Y-34896D01*
X46906Y-34968D01*
X47092Y-34968D01*
X47264Y-34897D01*
X47396Y-34765D01*
X47468Y-34593D01*
X47468Y-34407D01*
X47468Y-35412D01*
X47402Y-35242D01*
X47391Y-35226D01*
X47314Y-35198D01*
X47301Y-35211D01*
X47301Y-35185D01*
X47273Y-35108D01*
X47102Y-35033D01*
X46916Y-35030D01*
X46742Y-35097D01*
X46726Y-35108D01*
X46698Y-35185D01*
X47000Y-35487D01*
X47301Y-35185D01*
X47301Y-35211D01*
X47012Y-35500D01*
X47314Y-35801D01*
X47391Y-35773D01*
X47466Y-35602D01*
X47469Y-35416D01*
X47469Y-36704D01*
X47301Y-36535D01*
X47301Y-35814D01*
X47000Y-35512D01*
X46987Y-35525D01*
X46987Y-35500D01*
X46685Y-35198D01*
X46608Y-35226D01*
X46533Y-35397D01*
X46530Y-35583D01*
X46597Y-35757D01*
X46608Y-35773D01*
X46685Y-35801D01*
X46987Y-35500D01*
X46987Y-35525D01*
X46698Y-35814D01*
X46726Y-35891D01*
X46897Y-35966D01*
X47083Y-35969D01*
X47257Y-35902D01*
X47273Y-35891D01*
X47301Y-35814D01*
X47301Y-36535D01*
X46187Y-35422D01*
X46187Y-32577D01*
X48577Y-30187D01*
X48629Y-30187D01*
X48258Y-30558D01*
X48258Y-30558D01*
X48258Y-30558D01*
X46658Y-32158D01*
X46615Y-32221D01*
X46603Y-32234D01*
X46596Y-32251D01*
X46553Y-32315D01*
X46538Y-32390D01*
X46531Y-32406D01*
X46531Y-32424D01*
X46516Y-32500D01*
X46531Y-32574D01*
X46531Y-32592D01*
X46538Y-32609D01*
X46553Y-32684D01*
X46596Y-32748D01*
X46602Y-32764D01*
X46615Y-32777D01*
X46658Y-32841D01*
X46721Y-32884D01*
X46734Y-32896D01*
X46751Y-32903D01*
X46815Y-32946D01*
X46890Y-32961D01*
X46906Y-32968D01*
X46924Y-32968D01*
X47000Y-32983D01*
X47074Y-32968D01*
X47092Y-32968D01*
X47109Y-32961D01*
X47184Y-32946D01*
X47248Y-32903D01*
X47264Y-32897D01*
X47277Y-32884D01*
X47341Y-32841D01*
X48941Y-31241D01*
X48941Y-31241D01*
X48941Y-31241D01*
X49300Y-30883D01*
X50206Y-30883D01*
X50206Y-30967D01*
X50258Y-31094D01*
X50355Y-31190D01*
X50481Y-31243D01*
X50617Y-31243D01*
X50744Y-31191D01*
X50840Y-31094D01*
X50858Y-31052D01*
X50880Y-31030D01*
X50950Y-30924D01*
X50959Y-30883D01*
X56800Y-30883D01*
X57605Y-30883D01*
X57533Y-31047D01*
X57530Y-31233D01*
X57597Y-31407D01*
X57608Y-31423D01*
X57685Y-31451D01*
X57987Y-31150D01*
X57981Y-31144D01*
X57994Y-31131D01*
X58000Y-31137D01*
X58005Y-31131D01*
X58018Y-31144D01*
X58012Y-31150D01*
X58314Y-31451D01*
X58391Y-31423D01*
X58466Y-31252D01*
X58469Y-31066D01*
X58402Y-30892D01*
X58395Y-30883D01*
X58604Y-30883D01*
X58603Y-30884D01*
X58531Y-31056D01*
X58531Y-31242D01*
X58602Y-31414D01*
X58734Y-31546D01*
X58906Y-31618D01*
X59092Y-31618D01*
X59264Y-31547D01*
X59396Y-31415D01*
X59468Y-31243D01*
X59468Y-31057D01*
X59397Y-30885D01*
X59394Y-30883D01*
X59604Y-30883D01*
X59603Y-30884D01*
X59531Y-31056D01*
X59531Y-31242D01*
X59602Y-31414D01*
X59734Y-31546D01*
X59906Y-31618D01*
X60092Y-31618D01*
X60264Y-31547D01*
X60396Y-31415D01*
X60468Y-31243D01*
X60468Y-31057D01*
X60397Y-30885D01*
X60394Y-30883D01*
X61156Y-30883D01*
X61147Y-30891D01*
X61105Y-30908D01*
X61009Y-31005D01*
X60956Y-31131D01*
X60956Y-31267D01*
X61008Y-31394D01*
X61105Y-31490D01*
X61231Y-31543D01*
X61367Y-31543D01*
X61494Y-31491D01*
X61590Y-31394D01*
X61608Y-31352D01*
X61634Y-31325D01*
X65350Y-31325D01*
X70003Y-31325D01*
X70003Y-31911D01*
X69959Y-31955D01*
X69906Y-32081D01*
X69906Y-32217D01*
X69958Y-32344D01*
X70055Y-32440D01*
X70181Y-32493D01*
X70317Y-32493D01*
X70444Y-32441D01*
X70540Y-32344D01*
X70593Y-32218D01*
X70593Y-32082D01*
X70541Y-31955D01*
X70496Y-31911D01*
X70496Y-31325D01*
X71780Y-31325D01*
X71756Y-31381D01*
X71756Y-31517D01*
X71808Y-31644D01*
X71905Y-31740D01*
X72031Y-31793D01*
X72167Y-31793D01*
X72294Y-31741D01*
X72377Y-31657D01*
X73922Y-31657D01*
X73992Y-31727D01*
X73992Y-31950D01*
X74008Y-32029D01*
X74053Y-32096D01*
X74106Y-32150D01*
X74106Y-32267D01*
X74137Y-32342D01*
X72427Y-32342D01*
X72344Y-32259D01*
X72218Y-32206D01*
X72082Y-32206D01*
X71955Y-32258D01*
X71859Y-32355D01*
X71806Y-32481D01*
X71806Y-32617D01*
X71858Y-32744D01*
X71955Y-32840D01*
X72081Y-32893D01*
X72217Y-32893D01*
X72344Y-32841D01*
X72427Y-32757D01*
X74350Y-32757D01*
X74464Y-32757D01*
X74853Y-33146D01*
X74920Y-33191D01*
X74920Y-33191D01*
X75000Y-33207D01*
X75373Y-33207D01*
X75408Y-33294D01*
X75505Y-33390D01*
X75631Y-33443D01*
X75767Y-33443D01*
X75894Y-33391D01*
X75990Y-33294D01*
X76043Y-33168D01*
X76043Y-33093D01*
X76167Y-33093D01*
X76294Y-33041D01*
X76390Y-32944D01*
X76443Y-32818D01*
X76443Y-32682D01*
X76391Y-32555D01*
X76294Y-32459D01*
X76168Y-32406D01*
X76032Y-32406D01*
X75905Y-32458D01*
X75822Y-32542D01*
X75085Y-32542D01*
X74793Y-32249D01*
X74793Y-32132D01*
X74741Y-32005D01*
X74644Y-31909D01*
X74518Y-31856D01*
X74407Y-31856D01*
X74407Y-31727D01*
X74490Y-31644D01*
X74543Y-31518D01*
X74543Y-31382D01*
X74519Y-31325D01*
X74789Y-31325D01*
X74831Y-31343D01*
X74967Y-31343D01*
X75010Y-31325D01*
X75692Y-31325D01*
X75692Y-31422D01*
X75609Y-31505D01*
X75556Y-31631D01*
X75556Y-31767D01*
X75608Y-31894D01*
X75705Y-31990D01*
X75831Y-32043D01*
X75967Y-32043D01*
X76094Y-31991D01*
X76190Y-31894D01*
X76243Y-31768D01*
X76243Y-31632D01*
X76191Y-31505D01*
X76107Y-31422D01*
X76107Y-31325D01*
X77790Y-31325D01*
X77805Y-31340D01*
X77931Y-31393D01*
X78067Y-31393D01*
X78194Y-31341D01*
X78209Y-31325D01*
X80905Y-31325D01*
X81258Y-31325D01*
X81581Y-31648D01*
X81598Y-31690D01*
X81695Y-31786D01*
X81821Y-31839D01*
X81957Y-31839D01*
X82083Y-31787D01*
X82180Y-31690D01*
X82232Y-31564D01*
X82232Y-31428D01*
X82180Y-31301D01*
X82084Y-31205D01*
X82041Y-31187D01*
X81737Y-30883D01*
X82699Y-30883D01*
X84658Y-32841D01*
X84721Y-32884D01*
X84734Y-32896D01*
X84751Y-32903D01*
X84815Y-32946D01*
X84890Y-32961D01*
X84906Y-32968D01*
X84924Y-32968D01*
X85000Y-32983D01*
X85074Y-32968D01*
X85092Y-32968D01*
X85109Y-32961D01*
X85184Y-32946D01*
X85248Y-32903D01*
X85264Y-32897D01*
X85277Y-32884D01*
X85341Y-32841D01*
X85384Y-32778D01*
X85396Y-32765D01*
X85403Y-32748D01*
X85446Y-32684D01*
X85461Y-32609D01*
X85468Y-32593D01*
X85468Y-32575D01*
X85483Y-32500D01*
X85468Y-32425D01*
X85468Y-32407D01*
X85461Y-32390D01*
X85446Y-32315D01*
X85403Y-32251D01*
X85397Y-32235D01*
X85384Y-32222D01*
X85341Y-32158D01*
X83370Y-30187D01*
X83422Y-30187D01*
X85812Y-32577D01*
X85812Y-35422D01*
X85812Y-35422D01*
G37*
G54D19*
X85812Y-35422D02*
X85469Y-35764D01*
X85469Y-35416D01*
X85468Y-35412D01*
X85468Y-34407D01*
X85468Y-33407D01*
X85397Y-33235D01*
X85265Y-33103D01*
X85093Y-33031D01*
X84907Y-33031D01*
X84735Y-33102D01*
X84603Y-33234D01*
X84531Y-33406D01*
X84531Y-33592D01*
X84602Y-33764D01*
X84734Y-33896D01*
X84906Y-33968D01*
X85092Y-33968D01*
X85264Y-33897D01*
X85396Y-33765D01*
X85468Y-33593D01*
X85468Y-33407D01*
X85468Y-34407D01*
X85397Y-34235D01*
X85265Y-34103D01*
X85093Y-34031D01*
X84907Y-34031D01*
X84735Y-34102D01*
X84603Y-34234D01*
X84531Y-34406D01*
X84531Y-34592D01*
X84602Y-34764D01*
X84734Y-34896D01*
X84906Y-34968D01*
X85092Y-34968D01*
X85264Y-34897D01*
X85396Y-34765D01*
X85468Y-34593D01*
X85468Y-34407D01*
X85468Y-35412D01*
X85402Y-35242D01*
X85391Y-35226D01*
X85314Y-35198D01*
X85301Y-35211D01*
X85301Y-35185D01*
X85273Y-35108D01*
X85102Y-35033D01*
X84916Y-35030D01*
X84742Y-35097D01*
X84726Y-35108D01*
X84698Y-35185D01*
X85000Y-35487D01*
X85301Y-35185D01*
X85301Y-35211D01*
X85012Y-35500D01*
X85314Y-35801D01*
X85391Y-35773D01*
X85466Y-35602D01*
X85469Y-35416D01*
X85469Y-35764D01*
X85301Y-35933D01*
X85301Y-35814D01*
X85000Y-35512D01*
X84987Y-35525D01*
X84987Y-35500D01*
X84685Y-35198D01*
X84608Y-35226D01*
X84533Y-35397D01*
X84530Y-35583D01*
X84597Y-35757D01*
X84608Y-35773D01*
X84685Y-35801D01*
X84987Y-35500D01*
X84987Y-35525D01*
X84698Y-35814D01*
X84726Y-35891D01*
X84897Y-35966D01*
X85083Y-35969D01*
X85257Y-35902D01*
X85273Y-35891D01*
X85301Y-35814D01*
X85301Y-35933D01*
X83422Y-37812D01*
X83333Y-37812D01*
X83333Y-31768D01*
X83333Y-31732D01*
X83333Y-31695D01*
X83333Y-31695D01*
X83333Y-31695D01*
X83333Y-31695D01*
X83315Y-31605D01*
X83315Y-31605D01*
X83287Y-31537D01*
X83236Y-31460D01*
X83184Y-31409D01*
X83184Y-31408D01*
X83108Y-31357D01*
X83107Y-31357D01*
X83040Y-31329D01*
X82949Y-31311D01*
X82876Y-31311D01*
X82876Y-31312D01*
X82786Y-31329D01*
X82786Y-31329D01*
X82718Y-31357D01*
X82641Y-31409D01*
X82590Y-31461D01*
X82589Y-31461D01*
X82539Y-31537D01*
X82538Y-31537D01*
X82510Y-31605D01*
X82492Y-31695D01*
X82492Y-31732D01*
X82492Y-31768D01*
X82510Y-31859D01*
X82538Y-31926D01*
X82539Y-31927D01*
X82589Y-32003D01*
X82590Y-32003D01*
X82641Y-32055D01*
X82718Y-32106D01*
X82786Y-32134D01*
X82786Y-32134D01*
X82876Y-32152D01*
X82876Y-32152D01*
X82949Y-32152D01*
X83040Y-32134D01*
X83107Y-32106D01*
X83108Y-32106D01*
X83184Y-32055D01*
X83184Y-32055D01*
X83236Y-32003D01*
X83287Y-31927D01*
X83315Y-31859D01*
X83315Y-31859D01*
X83333Y-31769D01*
X83333Y-31769D01*
X83333Y-31769D01*
X83333Y-31768D01*
X83333Y-37812D01*
X83193Y-37812D01*
X83193Y-34232D01*
X83141Y-34105D01*
X83044Y-34009D01*
X82918Y-33956D01*
X82782Y-33956D01*
X82655Y-34008D01*
X82559Y-34105D01*
X82506Y-34231D01*
X82506Y-34294D01*
X82147Y-34653D01*
X81993Y-34653D01*
X81993Y-33632D01*
X81941Y-33505D01*
X81844Y-33409D01*
X81718Y-33356D01*
X81582Y-33356D01*
X81455Y-33408D01*
X81359Y-33505D01*
X81352Y-33522D01*
X81143Y-33522D01*
X81143Y-32732D01*
X81091Y-32605D01*
X80994Y-32509D01*
X80868Y-32456D01*
X80732Y-32456D01*
X80605Y-32508D01*
X80522Y-32592D01*
X80500Y-32592D01*
X80443Y-32592D01*
X80443Y-32082D01*
X80391Y-31955D01*
X80294Y-31859D01*
X80168Y-31806D01*
X80050Y-31806D01*
X79796Y-31553D01*
X79729Y-31508D01*
X79650Y-31492D01*
X77827Y-31492D01*
X77744Y-31409D01*
X77618Y-31356D01*
X77482Y-31356D01*
X77355Y-31408D01*
X77259Y-31505D01*
X77206Y-31631D01*
X77206Y-31767D01*
X77258Y-31894D01*
X77355Y-31990D01*
X77481Y-32043D01*
X77617Y-32043D01*
X77744Y-31991D01*
X77827Y-31907D01*
X79564Y-31907D01*
X79756Y-32100D01*
X79756Y-32217D01*
X79808Y-32344D01*
X79905Y-32440D01*
X80031Y-32493D01*
X80167Y-32493D01*
X80294Y-32441D01*
X80390Y-32344D01*
X80443Y-32218D01*
X80443Y-32082D01*
X80443Y-32592D01*
X76950Y-32592D01*
X76871Y-32608D01*
X76868Y-32606D01*
X76732Y-32606D01*
X76605Y-32658D01*
X76509Y-32755D01*
X76456Y-32881D01*
X76456Y-33017D01*
X76508Y-33144D01*
X76605Y-33240D01*
X76731Y-33293D01*
X76867Y-33293D01*
X76994Y-33241D01*
X77090Y-33144D01*
X77143Y-33018D01*
X77143Y-33007D01*
X80500Y-33007D01*
X80522Y-33007D01*
X80605Y-33090D01*
X80731Y-33143D01*
X80867Y-33143D01*
X80994Y-33091D01*
X81090Y-32994D01*
X81143Y-32868D01*
X81143Y-32732D01*
X81143Y-33522D01*
X75900Y-33522D01*
X74958Y-33522D01*
X74894Y-33459D01*
X74768Y-33406D01*
X74632Y-33406D01*
X74505Y-33458D01*
X74409Y-33555D01*
X74356Y-33681D01*
X74356Y-33817D01*
X74408Y-33944D01*
X74505Y-34040D01*
X74631Y-34093D01*
X74767Y-34093D01*
X74894Y-34041D01*
X74958Y-33977D01*
X75900Y-33977D01*
X81441Y-33977D01*
X81455Y-33990D01*
X81581Y-34043D01*
X81717Y-34043D01*
X81844Y-33991D01*
X81940Y-33894D01*
X81993Y-33768D01*
X81993Y-33632D01*
X81993Y-34653D01*
X80938Y-34653D01*
X80894Y-34609D01*
X80768Y-34556D01*
X80632Y-34556D01*
X80505Y-34608D01*
X80409Y-34705D01*
X80356Y-34831D01*
X80356Y-34967D01*
X80408Y-35094D01*
X80505Y-35190D01*
X80631Y-35243D01*
X80767Y-35243D01*
X80894Y-35191D01*
X80938Y-35146D01*
X82250Y-35146D01*
X82344Y-35128D01*
X82344Y-35128D01*
X82424Y-35074D01*
X82855Y-34643D01*
X82917Y-34643D01*
X83044Y-34591D01*
X83140Y-34494D01*
X83193Y-34368D01*
X83193Y-34232D01*
X83193Y-37812D01*
X81523Y-37812D01*
X81540Y-37794D01*
X81593Y-37668D01*
X81593Y-37532D01*
X81541Y-37405D01*
X81444Y-37309D01*
X81318Y-37256D01*
X81182Y-37256D01*
X81093Y-37293D01*
X81093Y-35682D01*
X81041Y-35555D01*
X80944Y-35459D01*
X80818Y-35406D01*
X80682Y-35406D01*
X80555Y-35458D01*
X80459Y-35555D01*
X80406Y-35681D01*
X80406Y-35744D01*
X79747Y-36403D01*
X79115Y-36403D01*
X79158Y-36360D01*
X79211Y-36233D01*
X79211Y-36096D01*
X79158Y-35969D01*
X79061Y-35872D01*
X78934Y-35819D01*
X78797Y-35819D01*
X78670Y-35872D01*
X78573Y-35969D01*
X78520Y-36096D01*
X78520Y-36233D01*
X78573Y-36360D01*
X78616Y-36403D01*
X78588Y-36403D01*
X78544Y-36359D01*
X78418Y-36306D01*
X78282Y-36306D01*
X78155Y-36358D01*
X78059Y-36455D01*
X78006Y-36581D01*
X78006Y-36717D01*
X78058Y-36844D01*
X78155Y-36940D01*
X78281Y-36993D01*
X78417Y-36993D01*
X78544Y-36941D01*
X78588Y-36896D01*
X79850Y-36896D01*
X79944Y-36878D01*
X79944Y-36878D01*
X80024Y-36824D01*
X80755Y-36093D01*
X80817Y-36093D01*
X80944Y-36041D01*
X81040Y-35944D01*
X81093Y-35818D01*
X81093Y-35682D01*
X81093Y-37293D01*
X81055Y-37308D01*
X80959Y-37405D01*
X80918Y-37503D01*
X78050Y-37503D01*
X77479Y-37503D01*
X77479Y-36096D01*
X77426Y-35969D01*
X77329Y-35872D01*
X77202Y-35819D01*
X77065Y-35819D01*
X76938Y-35872D01*
X76841Y-35969D01*
X76788Y-36096D01*
X76788Y-36233D01*
X76841Y-36360D01*
X76938Y-36457D01*
X77065Y-36510D01*
X77202Y-36510D01*
X77329Y-36457D01*
X77426Y-36360D01*
X77479Y-36233D01*
X77479Y-36096D01*
X77479Y-37503D01*
X75878Y-37503D01*
X75893Y-37468D01*
X75893Y-37332D01*
X75841Y-37205D01*
X75744Y-37109D01*
X75618Y-37056D01*
X75586Y-37056D01*
X76122Y-36520D01*
X76194Y-36491D01*
X76290Y-36394D01*
X76343Y-36268D01*
X76343Y-36132D01*
X76291Y-36005D01*
X76243Y-35957D01*
X76243Y-34332D01*
X76191Y-34205D01*
X76094Y-34109D01*
X75968Y-34056D01*
X75832Y-34056D01*
X75705Y-34108D01*
X75661Y-34153D01*
X74400Y-34153D01*
X74305Y-34171D01*
X74225Y-34225D01*
X74225Y-34225D01*
X74225Y-34225D01*
X74044Y-34406D01*
X73993Y-34406D01*
X73993Y-33832D01*
X73941Y-33705D01*
X73844Y-33609D01*
X73718Y-33556D01*
X73582Y-33556D01*
X73455Y-33608D01*
X73411Y-33653D01*
X72800Y-33653D01*
X70688Y-33653D01*
X70644Y-33609D01*
X70518Y-33556D01*
X70382Y-33556D01*
X70255Y-33608D01*
X70159Y-33705D01*
X70106Y-33831D01*
X70106Y-33967D01*
X70129Y-34022D01*
X68924Y-34022D01*
X68924Y-31926D01*
X68924Y-31889D01*
X68924Y-31853D01*
X68924Y-31852D01*
X68924Y-31852D01*
X68924Y-31852D01*
X68906Y-31762D01*
X68906Y-31762D01*
X68878Y-31694D01*
X68827Y-31618D01*
X68775Y-31566D01*
X68774Y-31566D01*
X68698Y-31515D01*
X68698Y-31515D01*
X68630Y-31487D01*
X68540Y-31469D01*
X68467Y-31469D01*
X68466Y-31469D01*
X68377Y-31487D01*
X68376Y-31487D01*
X68309Y-31515D01*
X68232Y-31566D01*
X68180Y-31618D01*
X68180Y-31618D01*
X68129Y-31694D01*
X68129Y-31695D01*
X68101Y-31762D01*
X68083Y-31853D01*
X68083Y-31889D01*
X68083Y-31926D01*
X68101Y-32016D01*
X68129Y-32084D01*
X68129Y-32084D01*
X68180Y-32160D01*
X68180Y-32160D01*
X68232Y-32212D01*
X68309Y-32264D01*
X68376Y-32292D01*
X68377Y-32292D01*
X68466Y-32309D01*
X68467Y-32310D01*
X68540Y-32310D01*
X68630Y-32292D01*
X68698Y-32264D01*
X68698Y-32264D01*
X68774Y-32213D01*
X68775Y-32213D01*
X68827Y-32161D01*
X68878Y-32084D01*
X68906Y-32017D01*
X68906Y-32016D01*
X68924Y-31926D01*
X68924Y-31926D01*
X68924Y-31926D01*
X68924Y-31926D01*
X68924Y-34022D01*
X68643Y-34022D01*
X68643Y-33182D01*
X68591Y-33055D01*
X68494Y-32959D01*
X68368Y-32906D01*
X68232Y-32906D01*
X68105Y-32958D01*
X68061Y-33003D01*
X67750Y-33003D01*
X67655Y-33021D01*
X67575Y-33075D01*
X67197Y-33453D01*
X61138Y-33453D01*
X61094Y-33409D01*
X60968Y-33356D01*
X60832Y-33356D01*
X60705Y-33408D01*
X60609Y-33505D01*
X60556Y-33631D01*
X60556Y-33767D01*
X60608Y-33894D01*
X60705Y-33990D01*
X60831Y-34043D01*
X60967Y-34043D01*
X61094Y-33991D01*
X61138Y-33946D01*
X67300Y-33946D01*
X67394Y-33928D01*
X67394Y-33928D01*
X67474Y-33874D01*
X67852Y-33496D01*
X68061Y-33496D01*
X68105Y-33540D01*
X68231Y-33593D01*
X68367Y-33593D01*
X68494Y-33541D01*
X68590Y-33444D01*
X68643Y-33318D01*
X68643Y-33182D01*
X68643Y-34022D01*
X67958Y-34022D01*
X67894Y-33959D01*
X67768Y-33906D01*
X67632Y-33906D01*
X67505Y-33958D01*
X67409Y-34055D01*
X67356Y-34181D01*
X67356Y-34317D01*
X67408Y-34444D01*
X67505Y-34540D01*
X67631Y-34593D01*
X67767Y-34593D01*
X67894Y-34541D01*
X67958Y-34477D01*
X72991Y-34477D01*
X73055Y-34540D01*
X73181Y-34593D01*
X73317Y-34593D01*
X73444Y-34541D01*
X73540Y-34444D01*
X73593Y-34318D01*
X73593Y-34243D01*
X73717Y-34243D01*
X73844Y-34191D01*
X73940Y-34094D01*
X73993Y-33968D01*
X73993Y-33832D01*
X73993Y-34406D01*
X73982Y-34406D01*
X73855Y-34458D01*
X73759Y-34555D01*
X73706Y-34681D01*
X73706Y-34817D01*
X73758Y-34944D01*
X73855Y-35040D01*
X73981Y-35093D01*
X74117Y-35093D01*
X74244Y-35041D01*
X74340Y-34944D01*
X74393Y-34818D01*
X74393Y-34755D01*
X74502Y-34646D01*
X75661Y-34646D01*
X75705Y-34690D01*
X75831Y-34743D01*
X75967Y-34743D01*
X76094Y-34691D01*
X76190Y-34594D01*
X76243Y-34468D01*
X76243Y-34332D01*
X76243Y-35957D01*
X76194Y-35909D01*
X76068Y-35856D01*
X75932Y-35856D01*
X75805Y-35908D01*
X75709Y-36005D01*
X75656Y-36131D01*
X75656Y-36267D01*
X75695Y-36361D01*
X75199Y-36856D01*
X75082Y-36856D01*
X74955Y-36908D01*
X74859Y-37005D01*
X74806Y-37131D01*
X74806Y-37142D01*
X71211Y-37142D01*
X71211Y-36096D01*
X71158Y-35969D01*
X71061Y-35872D01*
X70934Y-35819D01*
X70797Y-35819D01*
X70670Y-35872D01*
X70573Y-35969D01*
X70520Y-36096D01*
X70520Y-36233D01*
X70573Y-36360D01*
X70670Y-36457D01*
X70797Y-36510D01*
X70934Y-36510D01*
X71061Y-36457D01*
X71158Y-36360D01*
X71211Y-36233D01*
X71211Y-36096D01*
X71211Y-37142D01*
X69993Y-37142D01*
X69993Y-35832D01*
X69941Y-35705D01*
X69844Y-35609D01*
X69718Y-35556D01*
X69582Y-35556D01*
X69455Y-35608D01*
X69359Y-35705D01*
X69306Y-35831D01*
X69306Y-35863D01*
X69202Y-35819D01*
X69065Y-35819D01*
X68938Y-35872D01*
X68841Y-35969D01*
X68788Y-36096D01*
X68788Y-36233D01*
X68841Y-36360D01*
X68873Y-36392D01*
X68293Y-36392D01*
X68293Y-36382D01*
X68241Y-36255D01*
X68144Y-36159D01*
X68018Y-36106D01*
X67882Y-36106D01*
X67755Y-36158D01*
X67659Y-36255D01*
X67606Y-36381D01*
X67606Y-36517D01*
X67658Y-36644D01*
X67755Y-36740D01*
X67881Y-36793D01*
X68017Y-36793D01*
X68021Y-36791D01*
X68021Y-36791D01*
X68100Y-36807D01*
X69500Y-36807D01*
X69579Y-36791D01*
X69579Y-36791D01*
X69646Y-36746D01*
X69796Y-36596D01*
X69796Y-36596D01*
X69826Y-36551D01*
X69841Y-36529D01*
X69841Y-36529D01*
X69857Y-36450D01*
X69857Y-36450D01*
X69857Y-36177D01*
X69940Y-36094D01*
X69993Y-35968D01*
X69993Y-35832D01*
X69993Y-37142D01*
X64500Y-37142D01*
X63743Y-37142D01*
X63743Y-37132D01*
X63691Y-37005D01*
X63612Y-36927D01*
X64541Y-36927D01*
X64605Y-36990D01*
X64731Y-37043D01*
X64867Y-37043D01*
X64994Y-36991D01*
X65090Y-36894D01*
X65143Y-36768D01*
X65143Y-36632D01*
X65093Y-36511D01*
X65093Y-34282D01*
X65041Y-34155D01*
X64944Y-34059D01*
X64818Y-34006D01*
X64682Y-34006D01*
X64555Y-34058D01*
X64491Y-34122D01*
X60443Y-34122D01*
X60443Y-32132D01*
X60391Y-32005D01*
X60294Y-31909D01*
X60168Y-31856D01*
X60032Y-31856D01*
X59989Y-31874D01*
X58513Y-31874D01*
X58353Y-31745D01*
X58312Y-31724D01*
X58301Y-31717D01*
X58301Y-31464D01*
X58000Y-31162D01*
X57698Y-31464D01*
X57726Y-31541D01*
X57897Y-31616D01*
X58083Y-31619D01*
X58257Y-31552D01*
X58273Y-31541D01*
X58301Y-31464D01*
X58301Y-31717D01*
X58274Y-31699D01*
X58256Y-31695D01*
X58240Y-31687D01*
X58195Y-31683D01*
X58150Y-31674D01*
X54760Y-31674D01*
X54718Y-31656D01*
X54582Y-31656D01*
X54455Y-31708D01*
X54359Y-31805D01*
X54306Y-31931D01*
X54306Y-32067D01*
X54358Y-32194D01*
X54455Y-32290D01*
X54581Y-32343D01*
X54717Y-32343D01*
X54760Y-32325D01*
X58035Y-32325D01*
X58102Y-32379D01*
X58108Y-32394D01*
X58205Y-32490D01*
X58331Y-32543D01*
X58467Y-32543D01*
X58510Y-32525D01*
X59989Y-32525D01*
X60031Y-32543D01*
X60167Y-32543D01*
X60294Y-32491D01*
X60390Y-32394D01*
X60443Y-32268D01*
X60443Y-32132D01*
X60443Y-34122D01*
X59493Y-34122D01*
X59493Y-33582D01*
X59441Y-33455D01*
X59344Y-33359D01*
X59218Y-33306D01*
X59082Y-33306D01*
X58955Y-33358D01*
X58891Y-33422D01*
X57100Y-33422D01*
X56208Y-33422D01*
X56144Y-33359D01*
X56018Y-33306D01*
X55882Y-33306D01*
X55755Y-33358D01*
X55659Y-33455D01*
X55606Y-33581D01*
X55606Y-33717D01*
X55658Y-33844D01*
X55755Y-33940D01*
X55881Y-33993D01*
X56017Y-33993D01*
X56144Y-33941D01*
X56208Y-33877D01*
X57100Y-33877D01*
X58891Y-33877D01*
X58955Y-33940D01*
X59081Y-33993D01*
X59217Y-33993D01*
X59344Y-33941D01*
X59440Y-33844D01*
X59493Y-33718D01*
X59493Y-33582D01*
X59493Y-34122D01*
X59058Y-34122D01*
X58994Y-34059D01*
X58868Y-34006D01*
X58732Y-34006D01*
X58605Y-34058D01*
X58509Y-34155D01*
X58456Y-34281D01*
X58456Y-34417D01*
X58508Y-34544D01*
X58605Y-34640D01*
X58731Y-34693D01*
X58867Y-34693D01*
X58994Y-34641D01*
X59058Y-34577D01*
X64491Y-34577D01*
X64555Y-34640D01*
X64681Y-34693D01*
X64817Y-34693D01*
X64944Y-34641D01*
X65040Y-34544D01*
X65093Y-34418D01*
X65093Y-34282D01*
X65093Y-36511D01*
X65091Y-36505D01*
X64994Y-36409D01*
X64868Y-36356D01*
X64732Y-36356D01*
X64605Y-36408D01*
X64541Y-36472D01*
X62658Y-36472D01*
X62594Y-36409D01*
X62468Y-36356D01*
X62332Y-36356D01*
X62205Y-36408D01*
X62109Y-36505D01*
X62056Y-36631D01*
X62056Y-36767D01*
X62108Y-36894D01*
X62205Y-36990D01*
X62331Y-37043D01*
X62467Y-37043D01*
X62594Y-36991D01*
X62658Y-36927D01*
X63187Y-36927D01*
X63109Y-37005D01*
X63074Y-37089D01*
X62994Y-37009D01*
X62868Y-36956D01*
X62732Y-36956D01*
X62605Y-37008D01*
X62509Y-37105D01*
X62456Y-37231D01*
X62456Y-37367D01*
X62508Y-37494D01*
X62517Y-37503D01*
X60450Y-37503D01*
X60400Y-37503D01*
X60043Y-37503D01*
X60043Y-35432D01*
X59991Y-35305D01*
X59894Y-35209D01*
X59768Y-35156D01*
X59643Y-35156D01*
X59643Y-35082D01*
X59591Y-34955D01*
X59494Y-34859D01*
X59368Y-34806D01*
X59232Y-34806D01*
X59105Y-34858D01*
X59009Y-34955D01*
X58956Y-35081D01*
X58956Y-35192D01*
X56904Y-35192D01*
X56904Y-35003D01*
X56904Y-34236D01*
X56878Y-34174D01*
X56831Y-34127D01*
X56769Y-34101D01*
X56702Y-34101D01*
X56437Y-34101D01*
X56395Y-34143D01*
X56395Y-34610D01*
X56862Y-34610D01*
X56904Y-34568D01*
X56904Y-34236D01*
X56904Y-35003D01*
X56904Y-34671D01*
X56862Y-34629D01*
X56395Y-34629D01*
X56395Y-35096D01*
X56437Y-35138D01*
X56702Y-35138D01*
X56769Y-35138D01*
X56831Y-35112D01*
X56878Y-35065D01*
X56904Y-35003D01*
X56904Y-35192D01*
X56376Y-35192D01*
X56376Y-35096D01*
X56376Y-34629D01*
X56376Y-34610D01*
X56376Y-34143D01*
X56334Y-34101D01*
X56069Y-34101D01*
X56002Y-34101D01*
X55940Y-34127D01*
X55893Y-34174D01*
X55867Y-34236D01*
X55867Y-34568D01*
X55909Y-34610D01*
X56376Y-34610D01*
X56376Y-34629D01*
X55909Y-34629D01*
X55867Y-34671D01*
X55867Y-35003D01*
X55893Y-35065D01*
X55940Y-35112D01*
X56002Y-35138D01*
X56069Y-35138D01*
X56334Y-35138D01*
X56376Y-35096D01*
X56376Y-35192D01*
X55132Y-35192D01*
X55132Y-34936D01*
X55132Y-34236D01*
X55106Y-34174D01*
X55059Y-34127D01*
X54997Y-34101D01*
X54930Y-34101D01*
X54230Y-34101D01*
X54168Y-34127D01*
X54121Y-34174D01*
X54095Y-34236D01*
X54095Y-34303D01*
X54095Y-35003D01*
X54121Y-35065D01*
X54168Y-35112D01*
X54230Y-35138D01*
X54297Y-35138D01*
X54997Y-35138D01*
X55059Y-35112D01*
X55106Y-35065D01*
X55132Y-35003D01*
X55132Y-34936D01*
X55132Y-35192D01*
X53904Y-35192D01*
X53904Y-34953D01*
X53904Y-34186D01*
X53878Y-34124D01*
X53831Y-34077D01*
X53769Y-34051D01*
X53702Y-34051D01*
X53437Y-34051D01*
X53395Y-34093D01*
X53395Y-34560D01*
X53862Y-34560D01*
X53904Y-34518D01*
X53904Y-34186D01*
X53904Y-34953D01*
X53904Y-34621D01*
X53862Y-34579D01*
X53395Y-34579D01*
X53395Y-35046D01*
X53437Y-35088D01*
X53702Y-35088D01*
X53769Y-35088D01*
X53831Y-35062D01*
X53878Y-35015D01*
X53904Y-34953D01*
X53904Y-35192D01*
X53376Y-35192D01*
X53376Y-35046D01*
X53376Y-34579D01*
X53376Y-34560D01*
X53376Y-34093D01*
X53334Y-34051D01*
X53069Y-34051D01*
X53002Y-34051D01*
X52940Y-34077D01*
X52893Y-34124D01*
X52867Y-34186D01*
X52867Y-34518D01*
X52909Y-34560D01*
X53376Y-34560D01*
X53376Y-34579D01*
X52909Y-34579D01*
X52867Y-34621D01*
X52867Y-34953D01*
X52893Y-35015D01*
X52940Y-35062D01*
X53002Y-35088D01*
X53069Y-35088D01*
X53334Y-35088D01*
X53376Y-35046D01*
X53376Y-35192D01*
X52550Y-35192D01*
X52529Y-35192D01*
X52132Y-34794D01*
X52132Y-34186D01*
X52106Y-34124D01*
X52059Y-34077D01*
X51997Y-34051D01*
X51930Y-34051D01*
X51230Y-34051D01*
X51168Y-34077D01*
X51121Y-34124D01*
X51095Y-34186D01*
X51095Y-34253D01*
X51095Y-34953D01*
X51121Y-35015D01*
X51168Y-35062D01*
X51230Y-35088D01*
X51297Y-35088D01*
X51838Y-35088D01*
X52297Y-35546D01*
X52364Y-35591D01*
X52364Y-35591D01*
X52444Y-35607D01*
X52550Y-35607D01*
X54308Y-35607D01*
X54256Y-35731D01*
X54256Y-35867D01*
X54308Y-35994D01*
X54405Y-36090D01*
X54531Y-36143D01*
X54667Y-36143D01*
X54794Y-36091D01*
X54890Y-35994D01*
X54943Y-35868D01*
X54943Y-35807D01*
X56200Y-35807D01*
X56400Y-35807D01*
X59545Y-35807D01*
X59631Y-35843D01*
X59767Y-35843D01*
X59894Y-35791D01*
X59990Y-35694D01*
X60043Y-35568D01*
X60043Y-35432D01*
X60043Y-37503D01*
X58215Y-37503D01*
X58215Y-36808D01*
X58215Y-36771D01*
X58215Y-36735D01*
X58215Y-36734D01*
X58215Y-36734D01*
X58215Y-36734D01*
X58197Y-36644D01*
X58197Y-36644D01*
X58169Y-36576D01*
X58118Y-36500D01*
X58066Y-36448D01*
X58066Y-36448D01*
X57990Y-36397D01*
X57989Y-36397D01*
X57922Y-36369D01*
X57831Y-36351D01*
X57758Y-36351D01*
X57758Y-36351D01*
X57668Y-36369D01*
X57668Y-36369D01*
X57600Y-36397D01*
X57523Y-36448D01*
X57472Y-36500D01*
X57471Y-36500D01*
X57420Y-36576D01*
X57420Y-36577D01*
X57392Y-36644D01*
X57374Y-36735D01*
X57374Y-36771D01*
X57374Y-36808D01*
X57392Y-36898D01*
X57420Y-36966D01*
X57420Y-36966D01*
X57471Y-37042D01*
X57472Y-37042D01*
X57523Y-37094D01*
X57600Y-37146D01*
X57668Y-37174D01*
X57668Y-37174D01*
X57758Y-37191D01*
X57758Y-37192D01*
X57831Y-37192D01*
X57922Y-37174D01*
X57989Y-37146D01*
X57990Y-37145D01*
X58066Y-37095D01*
X58066Y-37094D01*
X58118Y-37043D01*
X58169Y-36966D01*
X58197Y-36898D01*
X58197Y-36898D01*
X58215Y-36808D01*
X58215Y-36808D01*
X58215Y-36808D01*
X58215Y-36808D01*
X58215Y-37503D01*
X58100Y-37503D01*
X56904Y-37503D01*
X56904Y-36796D01*
X56878Y-36734D01*
X56831Y-36687D01*
X56769Y-36661D01*
X56702Y-36661D01*
X56437Y-36661D01*
X56395Y-36703D01*
X56395Y-37170D01*
X56862Y-37170D01*
X56904Y-37128D01*
X56904Y-36796D01*
X56904Y-37503D01*
X56904Y-37503D01*
X56904Y-37231D01*
X56862Y-37189D01*
X56395Y-37189D01*
X56395Y-37196D01*
X56376Y-37196D01*
X56376Y-37189D01*
X56376Y-37170D01*
X56376Y-36703D01*
X56334Y-36661D01*
X56069Y-36661D01*
X56002Y-36661D01*
X55940Y-36687D01*
X55893Y-36734D01*
X55867Y-36796D01*
X55867Y-37128D01*
X55909Y-37170D01*
X56376Y-37170D01*
X56376Y-37189D01*
X55909Y-37189D01*
X55867Y-37231D01*
X55867Y-37503D01*
X55132Y-37503D01*
X55132Y-37496D01*
X55132Y-36796D01*
X55106Y-36734D01*
X55059Y-36687D01*
X54997Y-36661D01*
X54930Y-36661D01*
X54230Y-36661D01*
X54168Y-36687D01*
X54121Y-36734D01*
X54095Y-36796D01*
X54095Y-36863D01*
X54095Y-37503D01*
X53904Y-37503D01*
X53904Y-36746D01*
X53878Y-36684D01*
X53831Y-36637D01*
X53769Y-36611D01*
X53702Y-36611D01*
X53437Y-36611D01*
X53395Y-36653D01*
X53395Y-37120D01*
X53862Y-37120D01*
X53904Y-37078D01*
X53904Y-36746D01*
X53904Y-37503D01*
X53904Y-37503D01*
X53904Y-37181D01*
X53862Y-37139D01*
X53395Y-37139D01*
X53395Y-37146D01*
X53376Y-37146D01*
X53376Y-37139D01*
X53376Y-37120D01*
X53376Y-36653D01*
X53334Y-36611D01*
X53069Y-36611D01*
X53002Y-36611D01*
X52940Y-36637D01*
X52893Y-36684D01*
X52867Y-36746D01*
X52867Y-37078D01*
X52909Y-37120D01*
X53376Y-37120D01*
X53376Y-37139D01*
X52909Y-37139D01*
X52867Y-37181D01*
X52867Y-37503D01*
X52132Y-37503D01*
X52132Y-37446D01*
X52132Y-36746D01*
X52106Y-36684D01*
X52059Y-36637D01*
X51997Y-36611D01*
X51930Y-36611D01*
X51230Y-36611D01*
X51168Y-36637D01*
X51121Y-36684D01*
X51095Y-36746D01*
X51095Y-36813D01*
X51095Y-37503D01*
X51000Y-37503D01*
X50950Y-37503D01*
X49702Y-37503D01*
X49693Y-37494D01*
X49693Y-37432D01*
X49641Y-37305D01*
X49544Y-37209D01*
X49418Y-37156D01*
X49282Y-37156D01*
X49155Y-37208D01*
X49093Y-37271D01*
X49093Y-32932D01*
X49041Y-32805D01*
X48944Y-32709D01*
X48818Y-32656D01*
X48682Y-32656D01*
X48555Y-32708D01*
X48459Y-32805D01*
X48406Y-32931D01*
X48406Y-32994D01*
X48147Y-33253D01*
X47404Y-33253D01*
X47397Y-33235D01*
X47265Y-33103D01*
X47093Y-33031D01*
X46907Y-33031D01*
X46735Y-33102D01*
X46603Y-33234D01*
X46531Y-33406D01*
X46531Y-33592D01*
X46602Y-33764D01*
X46734Y-33896D01*
X46906Y-33968D01*
X47092Y-33968D01*
X47264Y-33897D01*
X47396Y-33765D01*
X47404Y-33746D01*
X48250Y-33746D01*
X48344Y-33728D01*
X48344Y-33728D01*
X48424Y-33674D01*
X48755Y-33343D01*
X48817Y-33343D01*
X48944Y-33291D01*
X49040Y-33194D01*
X49093Y-33068D01*
X49093Y-32932D01*
X49093Y-37271D01*
X49059Y-37305D01*
X49006Y-37431D01*
X49006Y-37567D01*
X49058Y-37694D01*
X49155Y-37790D01*
X49207Y-37812D01*
X48577Y-37812D01*
X47469Y-36704D01*
X47469Y-35416D01*
X47468Y-35412D01*
X47468Y-34407D01*
X47397Y-34235D01*
X47265Y-34103D01*
X47093Y-34031D01*
X46907Y-34031D01*
X46735Y-34102D01*
X46603Y-34234D01*
X46531Y-34406D01*
X46531Y-34592D01*
X46602Y-34764D01*
X46734Y-34896D01*
X46906Y-34968D01*
X47092Y-34968D01*
X47264Y-34897D01*
X47396Y-34765D01*
X47468Y-34593D01*
X47468Y-34407D01*
X47468Y-35412D01*
X47402Y-35242D01*
X47391Y-35226D01*
X47314Y-35198D01*
X47301Y-35211D01*
X47301Y-35185D01*
X47273Y-35108D01*
X47102Y-35033D01*
X46916Y-35030D01*
X46742Y-35097D01*
X46726Y-35108D01*
X46698Y-35185D01*
X47000Y-35487D01*
X47301Y-35185D01*
X47301Y-35211D01*
X47012Y-35500D01*
X47314Y-35801D01*
X47391Y-35773D01*
X47466Y-35602D01*
X47469Y-35416D01*
X47469Y-36704D01*
X47301Y-36535D01*
X47301Y-35814D01*
X47000Y-35512D01*
X46987Y-35525D01*
X46987Y-35500D01*
X46685Y-35198D01*
X46608Y-35226D01*
X46533Y-35397D01*
X46530Y-35583D01*
X46597Y-35757D01*
X46608Y-35773D01*
X46685Y-35801D01*
X46987Y-35500D01*
X46987Y-35525D01*
X46698Y-35814D01*
X46726Y-35891D01*
X46897Y-35966D01*
X47083Y-35969D01*
X47257Y-35902D01*
X47273Y-35891D01*
X47301Y-35814D01*
X47301Y-36535D01*
X46187Y-35422D01*
X46187Y-32577D01*
X48577Y-30187D01*
X48629Y-30187D01*
X48258Y-30558D01*
X48258Y-30558D01*
X48258Y-30558D01*
X46658Y-32158D01*
X46615Y-32221D01*
X46603Y-32234D01*
X46596Y-32251D01*
X46553Y-32315D01*
X46538Y-32390D01*
X46531Y-32406D01*
X46531Y-32424D01*
X46516Y-32500D01*
X46531Y-32574D01*
X46531Y-32592D01*
X46538Y-32609D01*
X46553Y-32684D01*
X46596Y-32748D01*
X46602Y-32764D01*
X46615Y-32777D01*
X46658Y-32841D01*
X46721Y-32884D01*
X46734Y-32896D01*
X46751Y-32903D01*
X46815Y-32946D01*
X46890Y-32961D01*
X46906Y-32968D01*
X46924Y-32968D01*
X47000Y-32983D01*
X47074Y-32968D01*
X47092Y-32968D01*
X47109Y-32961D01*
X47184Y-32946D01*
X47248Y-32903D01*
X47264Y-32897D01*
X47277Y-32884D01*
X47341Y-32841D01*
X48941Y-31241D01*
X48941Y-31241D01*
X48941Y-31241D01*
X49300Y-30883D01*
X50206Y-30883D01*
X50206Y-30967D01*
X50258Y-31094D01*
X50355Y-31190D01*
X50481Y-31243D01*
X50617Y-31243D01*
X50744Y-31191D01*
X50840Y-31094D01*
X50858Y-31052D01*
X50880Y-31030D01*
X50950Y-30924D01*
X50959Y-30883D01*
X56800Y-30883D01*
X57605Y-30883D01*
X57533Y-31047D01*
X57530Y-31233D01*
X57597Y-31407D01*
X57608Y-31423D01*
X57685Y-31451D01*
X57987Y-31150D01*
X57981Y-31144D01*
X57994Y-31131D01*
X58000Y-31137D01*
X58005Y-31131D01*
X58018Y-31144D01*
X58012Y-31150D01*
X58314Y-31451D01*
X58391Y-31423D01*
X58466Y-31252D01*
X58469Y-31066D01*
X58402Y-30892D01*
X58395Y-30883D01*
X58604Y-30883D01*
X58603Y-30884D01*
X58531Y-31056D01*
X58531Y-31242D01*
X58602Y-31414D01*
X58734Y-31546D01*
X58906Y-31618D01*
X59092Y-31618D01*
X59264Y-31547D01*
X59396Y-31415D01*
X59468Y-31243D01*
X59468Y-31057D01*
X59397Y-30885D01*
X59394Y-30883D01*
X59604Y-30883D01*
X59603Y-30884D01*
X59531Y-31056D01*
X59531Y-31242D01*
X59602Y-31414D01*
X59734Y-31546D01*
X59906Y-31618D01*
X60092Y-31618D01*
X60264Y-31547D01*
X60396Y-31415D01*
X60468Y-31243D01*
X60468Y-31057D01*
X60397Y-30885D01*
X60394Y-30883D01*
X61156Y-30883D01*
X61147Y-30891D01*
X61105Y-30908D01*
X61009Y-31005D01*
X60956Y-31131D01*
X60956Y-31267D01*
X61008Y-31394D01*
X61105Y-31490D01*
X61231Y-31543D01*
X61367Y-31543D01*
X61494Y-31491D01*
X61590Y-31394D01*
X61608Y-31352D01*
X61634Y-31325D01*
X65350Y-31325D01*
X70003Y-31325D01*
X70003Y-31911D01*
X69959Y-31955D01*
X69906Y-32081D01*
X69906Y-32217D01*
X69958Y-32344D01*
X70055Y-32440D01*
X70181Y-32493D01*
X70317Y-32493D01*
X70444Y-32441D01*
X70540Y-32344D01*
X70593Y-32218D01*
X70593Y-32082D01*
X70541Y-31955D01*
X70496Y-31911D01*
X70496Y-31325D01*
X71780Y-31325D01*
X71756Y-31381D01*
X71756Y-31517D01*
X71808Y-31644D01*
X71905Y-31740D01*
X72031Y-31793D01*
X72167Y-31793D01*
X72294Y-31741D01*
X72377Y-31657D01*
X73922Y-31657D01*
X73992Y-31727D01*
X73992Y-31950D01*
X74008Y-32029D01*
X74053Y-32096D01*
X74106Y-32150D01*
X74106Y-32267D01*
X74137Y-32342D01*
X72427Y-32342D01*
X72344Y-32259D01*
X72218Y-32206D01*
X72082Y-32206D01*
X71955Y-32258D01*
X71859Y-32355D01*
X71806Y-32481D01*
X71806Y-32617D01*
X71858Y-32744D01*
X71955Y-32840D01*
X72081Y-32893D01*
X72217Y-32893D01*
X72344Y-32841D01*
X72427Y-32757D01*
X74350Y-32757D01*
X74464Y-32757D01*
X74853Y-33146D01*
X74920Y-33191D01*
X74920Y-33191D01*
X75000Y-33207D01*
X75373Y-33207D01*
X75408Y-33294D01*
X75505Y-33390D01*
X75631Y-33443D01*
X75767Y-33443D01*
X75894Y-33391D01*
X75990Y-33294D01*
X76043Y-33168D01*
X76043Y-33093D01*
X76167Y-33093D01*
X76294Y-33041D01*
X76390Y-32944D01*
X76443Y-32818D01*
X76443Y-32682D01*
X76391Y-32555D01*
X76294Y-32459D01*
X76168Y-32406D01*
X76032Y-32406D01*
X75905Y-32458D01*
X75822Y-32542D01*
X75085Y-32542D01*
X74793Y-32249D01*
X74793Y-32132D01*
X74741Y-32005D01*
X74644Y-31909D01*
X74518Y-31856D01*
X74407Y-31856D01*
X74407Y-31727D01*
X74490Y-31644D01*
X74543Y-31518D01*
X74543Y-31382D01*
X74519Y-31325D01*
X74789Y-31325D01*
X74831Y-31343D01*
X74967Y-31343D01*
X75010Y-31325D01*
X75692Y-31325D01*
X75692Y-31422D01*
X75609Y-31505D01*
X75556Y-31631D01*
X75556Y-31767D01*
X75608Y-31894D01*
X75705Y-31990D01*
X75831Y-32043D01*
X75967Y-32043D01*
X76094Y-31991D01*
X76190Y-31894D01*
X76243Y-31768D01*
X76243Y-31632D01*
X76191Y-31505D01*
X76107Y-31422D01*
X76107Y-31325D01*
X77790Y-31325D01*
X77805Y-31340D01*
X77931Y-31393D01*
X78067Y-31393D01*
X78194Y-31341D01*
X78209Y-31325D01*
X80905Y-31325D01*
X81258Y-31325D01*
X81581Y-31648D01*
X81598Y-31690D01*
X81695Y-31786D01*
X81821Y-31839D01*
X81957Y-31839D01*
X82083Y-31787D01*
X82180Y-31690D01*
X82232Y-31564D01*
X82232Y-31428D01*
X82180Y-31301D01*
X82084Y-31205D01*
X82041Y-31187D01*
X81737Y-30883D01*
X82699Y-30883D01*
X84658Y-32841D01*
X84721Y-32884D01*
X84734Y-32896D01*
X84751Y-32903D01*
X84815Y-32946D01*
X84890Y-32961D01*
X84906Y-32968D01*
X84924Y-32968D01*
X85000Y-32983D01*
X85074Y-32968D01*
X85092Y-32968D01*
X85109Y-32961D01*
X85184Y-32946D01*
X85248Y-32903D01*
X85264Y-32897D01*
X85277Y-32884D01*
X85341Y-32841D01*
X85384Y-32778D01*
X85396Y-32765D01*
X85403Y-32748D01*
X85446Y-32684D01*
X85461Y-32609D01*
X85468Y-32593D01*
X85468Y-32575D01*
X85483Y-32500D01*
X85468Y-32425D01*
X85468Y-32407D01*
X85461Y-32390D01*
X85446Y-32315D01*
X85403Y-32251D01*
X85397Y-32235D01*
X85384Y-32222D01*
X85341Y-32158D01*
X83370Y-30187D01*
X83422Y-30187D01*
X85812Y-32577D01*
X85812Y-35422D01*
M02*
